<svg width="304" height="304" viewBox="0 0 304 304" fill="none" xmlns="http://www.w3.org/2000/svg">
<g id="loginImage">
<circle id="Ellipse 1" cx="152" cy="152" r="152" fill="#2C3DCF"/>
<g id="Girl Mid">
<g id="upper hand">
<path id="Vector" d="M126.012 167.091C125.884 169.297 125.63 171.686 125.234 174.161C122.236 193.602 111.504 221.528 99.599 238.566C97.2131 242.086 94.4592 245.343 91.3839 248.28C82.0094 256.891 67.1063 258.517 56.6996 252.522C53.5581 250.713 50.8811 248.196 48.8809 245.173C46.8807 242.149 45.6122 238.701 45.1759 235.102C44.7239 231.982 44.6859 228.815 45.0628 225.685C47.0565 208.025 59.0892 177.766 73.6105 155.935C75.2649 153.418 76.9616 151.014 78.6866 148.766C86.8876 138.02 95.5692 130.526 103.502 129.706C105.142 129.52 106.802 129.649 108.394 130.088C121.529 133.821 127.185 144.157 126.012 167.091Z" fill="#FED81D"/>
<path id="Vector_2" d="M101.946 177.625C97.9569 191.332 96.3594 205.624 97.2235 219.874C97.6704 226.162 98.4634 232.421 99.599 238.623C97.2131 242.143 94.4592 245.399 91.3839 248.337C82.0094 256.948 67.1063 258.574 56.6996 252.578C53.551 250.763 50.8696 248.238 48.869 245.204C46.8684 242.17 45.6038 238.711 45.1759 235.102C54.4232 245 64.0946 247.135 71.7582 244.632C82.8012 241.069 89.7437 227.947 85.4736 214.501C77.9938 190.888 94.8764 177.384 102.936 173.496C102.667 174.825 102.3 176.225 101.946 177.625Z" fill="#FCC71F"/>
<path id="Vector_3" d="M126.012 167.091C125.884 169.297 125.63 171.686 125.234 174.161C123.848 172.12 122.709 169.922 121.841 167.614C117.754 156.712 110.402 150.576 102.243 147.918C94.527 145.513 86.2239 145.792 78.6866 148.709C86.8876 137.963 95.5693 130.469 103.502 129.649C105.142 129.463 106.802 129.593 108.394 130.031C121.529 133.821 127.185 144.157 126.012 167.091Z" fill="#FFE05C"/>
</g>
<g id="body">
<path id="Vector_4" d="M157.331 148.37C142.47 150.18 139.275 138.274 139.176 121.265C139.176 117.263 139.303 112.979 139.529 108.539C139.647 105.908 139.931 103.287 140.377 100.692C145.439 71.7197 169.42 75.2404 170.65 92.2927C171.131 98.7545 175.698 146.136 157.331 148.37Z" fill="#B25E47"/>
<path id="Vector_5" d="M156.977 103.406C156.185 114.845 147.956 120.727 139.19 121.265C139.19 117.263 139.317 112.979 139.543 108.539C139.662 105.908 139.945 103.287 140.392 100.692C145.213 98.5989 157.599 94.1308 156.977 103.406Z" fill="#914839"/>
<path id="Vector_6" d="M214.511 216.098C213.733 218.717 213.114 221.38 212.659 224.073C212.531 224.808 212.404 225.487 212.291 226.265C207.738 254.657 207.173 280.971 206.861 283.7C206.55 286.429 181.128 285.495 162.223 284.576C154.856 284.209 145.34 284.308 136.348 284.378C122.208 284.491 109.483 284.52 108.464 282.526C107.786 281.239 105.962 273.675 103.982 263.975C103.671 262.476 103.346 260.921 103.035 259.337C102.879 258.545 102.71 257.739 102.568 256.933C102.427 256.127 102.215 255.081 102.031 254.106C101.847 253.13 101.663 252.126 101.465 251.122C101.07 248.916 100.659 246.668 100.278 244.448C99.8959 242.228 99.5424 240.037 99.2031 237.887C98.1433 231.676 97.4117 225.413 97.0114 219.124C96.3103 204.863 98.0608 190.587 102.187 176.918C102.3 176.564 102.399 176.225 102.483 175.871C102.639 175.278 102.78 174.684 102.922 174.09C103.007 173.779 103.063 173.468 103.134 173.157C103.205 172.846 103.261 172.535 103.318 172.223C103.374 171.912 103.445 171.601 103.502 171.29C103.558 170.979 103.6 170.682 103.643 170.371C103.742 169.763 103.827 169.155 103.897 168.561C104.067 167.147 104.194 165.634 104.251 164.22C104.251 164.023 104.251 163.825 104.251 163.641C104.251 162.637 104.251 161.647 104.251 160.671C104.144 156.168 103.643 151.683 102.752 147.267C101.338 139.731 99.3445 134.075 99.8252 131.473C100.051 130.187 101.395 129.423 103.714 129.084C103.874 129.071 104.034 129.071 104.194 129.084C109.85 128.405 120.964 130.031 135.98 133.142C136.308 129.766 136.865 126.417 137.648 123.117C137.796 122.602 138.112 122.152 138.544 121.837C138.977 121.522 139.503 121.36 140.038 121.378C142.045 121.439 144.044 121.652 146.019 122.014C149.625 122.353 161.912 120.105 168.232 116.782C169.506 116.053 170.907 115.573 172.361 115.368C175.387 115.1 176.433 117.489 176.829 120.741V121.166C176.829 121.321 176.829 121.477 176.829 121.632C176.829 121.788 176.829 122.226 176.9 122.537C176.971 122.848 176.9 123.004 176.9 123.244V124.206C176.9 124.587 176.9 124.969 176.9 125.365V126.482C176.9 126.666 176.9 126.85 176.9 127.048C176.9 127.246 176.9 127.373 176.9 127.528C176.9 127.684 176.9 127.967 176.9 128.193C176.9 128.419 176.9 128.744 176.9 129.013C176.9 129.282 176.9 129.55 176.9 129.819V130.342C176.9 132.703 176.9 134.485 176.9 134.485C188.31 130.158 205.532 125.747 218.569 133.764C222.816 136.454 226.328 140.156 228.792 144.538C229.464 145.67 230.077 146.836 230.63 148.031C241.772 171.177 221.948 190.859 214.511 216.098Z" fill="#FED81D"/>
<path id="Vector_7" d="M229.202 144.538C218.187 145.882 205.872 153.022 194.292 166.78C192.496 168.915 190.728 171.191 188.961 173.652C170.367 199.682 137.974 192.782 125.503 173.793C124.147 171.738 123.036 169.532 122.194 167.218C118.207 156.26 110.882 150.053 102.795 147.31C101.381 139.773 99.3869 134.117 99.8677 131.516C100.094 130.229 101.437 129.466 103.756 129.126C103.916 129.113 104.077 129.113 104.237 129.126C109.893 128.447 121.006 130.074 136.022 133.184C136.334 129.795 136.878 126.432 137.649 123.117C137.796 122.602 138.112 122.152 138.544 121.837C138.977 121.522 139.503 121.36 140.038 121.378C142.045 121.439 144.044 121.652 146.019 122.014C149.625 122.353 161.912 120.105 168.232 116.782C169.506 116.053 170.907 115.573 172.361 115.368C175.387 115.1 176.433 117.489 176.829 120.741V121.166C176.829 121.321 176.829 121.477 176.829 121.632C176.829 121.788 176.829 122.226 176.9 122.537C176.971 122.848 176.9 123.004 176.9 123.244V124.206C176.9 124.587 176.9 124.969 176.9 125.365V126.482C176.9 126.666 176.9 126.85 176.9 127.048C176.9 127.246 176.9 127.373 176.9 127.528C176.9 127.684 176.9 127.967 176.9 128.193C176.9 128.419 176.9 128.744 176.9 129.013C176.9 129.282 176.9 129.55 176.9 129.819V130.342C176.9 132.703 176.9 134.485 176.9 134.485C188.31 130.158 205.532 125.747 218.569 133.764C222.966 136.4 226.624 140.107 229.202 144.538V144.538Z" fill="#FFE05C"/>
<path id="Vector_8" d="M103.911 163.726C103.876 166.991 103.55 170.246 102.936 173.454C102.667 174.868 102.342 176.282 101.946 177.695C97.9569 191.403 96.3593 205.695 97.2235 219.944C97.6704 226.233 98.4634 232.492 99.5989 238.693C99.9524 240.843 100.334 243.034 100.744 245.24C101.96 251.886 103.346 258.701 104.647 264.696C106.739 274.367 108.634 281.904 109.327 283.191" stroke="#F7AD2B" stroke-width="0.55" stroke-linecap="round" stroke-linejoin="round"/>
<path id="Vector_9" d="M212.588 225.77C208.346 254.205 208.049 280.532 207.766 283.261C207.484 285.99 182.061 285.326 163.142 284.675C155.775 284.378 146.245 284.59 137.267 284.675C144.648 278.525 159.89 268.429 174.567 274.778C194.885 283.643 204.472 255.661 192.057 253.158C179.643 250.655 179.063 236.558 176.589 225.119L186.741 221.019L212.588 225.77Z" fill="#FCC71F"/>
<path id="Vector_10" d="M135.315 133.425C135.195 135.629 135.195 137.838 135.315 140.042" stroke="#F7AD2B" stroke-width="0.55" stroke-linecap="round" stroke-linejoin="round"/>
<path id="Vector_11" d="M176.561 133.934C176.405 138.26 176.193 141.088 176.193 141.088" stroke="#F7AD2B" stroke-width="0.55" stroke-linecap="round" stroke-linejoin="round"/>
<path id="Vector_12" d="M145.171 140.622C150.827 142.219 159.31 142.318 164.245 140.622" stroke="#F7AD2B" stroke-width="0.55" stroke-linecap="round" stroke-linejoin="round"/>
</g>
<g id="upper hand_2">
<path id="Vector_13" d="M265.908 242.497C260.182 249.807 244.458 251.221 231.705 241.083C228.151 238.203 225.107 234.748 222.698 230.86C221.284 228.64 219.488 225.204 217.466 221.245C216.575 219.478 215.628 217.583 214.638 215.589C209.265 204.617 203.143 191.298 199.198 183.691C197.245 179.845 195.782 175.769 194.843 171.559C194.447 169.89 194.136 168.194 193.895 166.497C190.954 145.995 198.307 124.474 218.173 133.184H218.244C222.203 134.938 226.416 138.699 230.644 143.662C240.909 155.68 251.217 174.769 257.792 189.149C259.277 192.415 260.62 195.426 261.638 198.071C269.358 217.145 273.077 233.292 265.908 242.497Z" fill="#FED81D"/>
<path id="Vector_14" d="M235.734 210.075C235.296 217.23 226.883 220.185 217.466 221.16C216.575 219.393 215.628 217.498 214.638 215.505C209.265 204.532 203.143 191.213 199.198 183.606C197.245 179.76 195.782 175.684 194.843 171.474C202.945 171.644 211.711 174.599 212.517 188.442C213.125 197.972 236.766 193.716 235.734 210.075Z" fill="#FCC71F"/>
<path id="Vector_15" d="M230.687 143.619C229.991 143.65 229.297 143.716 228.608 143.817C217.622 145.231 205.363 152.555 193.938 166.44C190.997 145.938 198.349 124.418 218.215 133.128H218.286C222.245 134.952 226.459 138.713 230.687 143.619Z" fill="#FFE05C"/>
<path id="Vector_16" d="M222.698 230.818C221.284 228.598 219.488 225.162 217.466 221.203C216.575 219.435 215.628 217.541 214.638 215.547C209.265 204.575 203.143 191.255 199.198 183.648C197.245 179.802 195.782 175.726 194.843 171.517C194.447 169.848 194.136 168.151 193.896 166.455" stroke="#F7AD2B" stroke-width="0.55" stroke-linecap="round" stroke-linejoin="round"/>
<path id="Vector_17" d="M265.908 242.497C260.182 249.807 244.458 251.221 231.705 241.083C234.848 240.074 238.179 239.794 241.447 240.263C254.441 242.158 267.251 236.841 257.269 221.684C249.195 209.425 254.964 194.041 257.834 189.163C259.319 192.429 260.662 195.441 261.68 198.085C269.358 217.145 273.077 233.292 265.908 242.497Z" fill="#FCC71F"/>
</g>
<g id="head">
<path id="Vector_18" d="M182.499 48.7005C180.067 50.4255 178.568 50.7083 178.625 53.3524C178.681 55.9965 177.55 56.7176 176.419 57.1559C175.288 57.5943 176.546 59.5031 176.193 61.3978C175.839 63.2925 171.046 65.0599 171.046 65.0599L139.175 50.072C136.517 46.8482 137.677 45.0525 138.525 43.3275C138.608 43.1631 138.652 42.9815 138.652 42.7972C138.652 42.613 138.608 42.4314 138.525 42.267C138.087 41.0652 136.135 40.0188 136.644 38.6756C137.281 36.9647 139.006 36.6678 140.999 36.5971C142.993 36.5264 142.611 30.7998 141.664 29.2869C140.717 27.774 141.438 23.9846 144.647 24.2108C147.857 24.4371 149.101 23.7866 149.384 22.2737C149.579 21.748 149.879 21.268 150.268 20.8639C150.656 20.4598 151.124 20.1402 151.642 19.9252C152.159 19.7101 152.716 19.6043 153.276 19.6143C153.837 19.6242 154.389 19.7498 154.899 19.9831C157.401 21.2839 159.551 19.8417 161.063 18.4136C161.148 18.3227 161.243 18.242 161.346 18.1732C163.001 16.8865 166.451 16.1796 167.865 18.4136C168.503 19.5084 169.424 20.4115 170.531 21.0284C171.637 21.6453 172.89 21.9533 174.157 21.9202C177.168 22.1323 178.031 24.635 177.38 27.1377C176.73 29.6404 177.663 30.5171 179.615 31.6624C180.63 32.4686 181.377 33.5634 181.758 34.8026C182.139 36.0418 182.136 37.3674 181.75 38.6049C181.358 39.3316 181.217 40.167 181.347 40.9821C181.477 41.7973 181.872 42.5469 182.471 43.1154C183.418 44.0486 184.931 46.9755 182.499 48.7005Z" fill="#473526"/>
<path id="Vector_19" d="M170.367 89.6627C167.844 90.7269 165.114 91.2101 162.378 91.0767C151.434 90.5677 124.711 100.451 124.711 100.451C120.228 101.003 117.485 102.558 119.521 104.792C121.558 107.026 123.452 113.488 118.263 114.025C117.242 114.115 116.216 114.115 115.195 114.025C112.155 113.756 110.797 112.47 111.179 111.282C111.674 109.741 114.969 110.08 115.591 109.458C116.213 108.836 116.368 107.422 114.332 105.527C112.296 103.633 110.826 100.692 112.918 97.7081C115.011 94.7247 119.154 92.0523 116.637 89.889C114.12 87.7256 112.07 85.8875 113.13 83.3565C114.191 80.8255 120.2 77.2624 117.372 74.1799C114.544 71.0975 112.197 67.1102 117.528 62.2603C122.858 57.4105 128.246 58.3295 127.425 54.1866C126.605 50.0438 127.284 46.0564 133.081 47.032C138.878 48.0077 139.67 47.5976 142.201 46.1978C144.732 44.798 148.083 45.5615 151.321 48.3612C154.559 51.1608 157.628 48.0077 161.544 48.7853C165.461 49.563 161.544 53.3383 166.521 54.1866C171.498 55.035 173.195 55.2471 173.761 60.0121C174.326 64.7771 177.621 64.8337 178.314 66.3184C179.728 69.3442 177.479 71.451 176.829 73.2043C176.179 74.9576 177.593 76.0322 178.71 77.8986C180.576 80.9952 176.815 86.9197 170.367 89.6627Z" fill="#604730"/>
<path id="Vector_20" d="M172.092 81.2356C171.731 84.1027 171.154 86.9386 170.367 89.7193C167.844 90.7834 165.114 91.2667 162.378 91.1332C151.434 90.6242 124.711 100.508 124.711 100.508C120.229 101.059 117.485 102.615 119.522 104.849C121.558 107.083 123.452 113.544 118.263 114.082C117.242 114.172 116.216 114.172 115.195 114.082C119.083 113.445 120.115 110.674 118.122 107.012C115.294 101.964 116.354 98.9807 119.126 96.0821C121.897 93.1835 117.358 86.3682 119.126 82.7768C120.893 79.1853 123.877 77.8986 122.675 72.4691C121.473 67.0395 122.095 64.4378 126.337 61.4261C130.579 58.4144 134.241 57.8346 136.531 54.2291C138.822 50.6235 144.817 48.3611 146.853 52.6596C148.889 56.958 149.554 59.899 155.337 58.1457C161.12 56.3924 164.909 58.5416 162.873 63.4622C160.837 68.3827 161.799 73.0629 165.39 73.6709C168.982 74.2789 172.785 74.3355 172.092 81.2356Z" fill="#473526"/>
<path id="Vector_21" d="M167.978 97.7081C146.443 113.375 137.168 118.522 126.874 109.868C122.067 105.838 121.218 97.6091 122.194 89.2244C122.539 86.2282 123.077 83.2574 123.806 80.3306C124.884 75.5691 126.531 70.9546 128.712 66.587C133.364 58.2447 143.969 57.8346 145.043 58.2447C146.118 58.6547 146.457 59.2769 145.411 61.7513C144.365 64.2257 145.524 65.9931 148.508 66.078C151.491 66.1628 154.899 68.2413 154.588 71.2248C154.388 72.6799 154.625 74.1613 155.266 75.4824C155.908 76.8034 156.926 77.9049 158.193 78.648C161.021 80.4013 160.455 83.0737 160.865 84.728C161.276 86.3824 164.683 88.2346 165.616 85.9582C166.55 83.6817 171.894 78.8884 176.221 83.2858C180.548 87.6832 176.73 98.0192 167.978 97.7081Z" fill="#B25E47"/>
<path id="Vector_22" d="M142.173 86.5096C143.205 88.6588 146.938 89.0123 150.501 87.3014C154.064 85.5906 156.157 82.4374 155.068 80.2317C153.98 78.0259 150.303 77.729 146.74 79.454C143.177 81.179 141.127 84.3604 142.173 86.5096Z" fill="#A0503D"/>
<path id="Vector_23" d="M127.652 88.3902C126.676 89.8041 124.498 90.0162 122.194 89.2244C122.539 86.2282 123.077 83.2574 123.806 80.3306L124.371 80.6983C127.581 83.003 129.051 86.4531 127.652 88.3902Z" fill="#A0503D"/>
<path id="Vector_24" d="M127.242 77.9835C127.242 78.2631 127.325 78.5365 127.48 78.769C127.635 79.0016 127.856 79.1828 128.115 79.2898C128.373 79.3968 128.657 79.4248 128.931 79.3703C129.206 79.3157 129.458 79.181 129.655 78.9833C129.853 78.7856 129.988 78.5336 130.042 78.2593C130.097 77.9851 130.069 77.7008 129.962 77.4424C129.855 77.184 129.674 76.9632 129.441 76.8078C129.209 76.6525 128.935 76.5695 128.656 76.5695C128.281 76.5695 127.921 76.7185 127.656 76.9837C127.391 77.2488 127.242 77.6085 127.242 77.9835Z" fill="#683F1D"/>
<path id="Vector_25" d="M136.234 78.7612C136.234 79.1512 136.389 79.5252 136.665 79.801C136.941 80.0767 137.315 80.2317 137.705 80.2317C138.095 80.2317 138.469 80.0767 138.745 79.801C139.02 79.5252 139.175 79.1512 139.175 78.7612C139.175 78.3712 139.02 77.9971 138.745 77.7214C138.469 77.4456 138.095 77.2906 137.705 77.2906C137.315 77.2906 136.941 77.4456 136.665 77.7214C136.389 77.9971 136.234 78.3712 136.234 78.7612V78.7612Z" fill="#683F1D"/>
<path id="Vector_26" d="M167.186 91.105C167.483 87.9377 171.102 83.5686 175.005 86.8631" stroke="#934735" stroke-width="0.55" stroke-linecap="round" stroke-linejoin="round"/>
<path id="Vector_27" d="M167.341 90.3273C170.056 85.6612 175.5 92.0523 169.137 93.3107" stroke="#934735" stroke-width="0.55" stroke-linecap="round" stroke-linejoin="round"/>
<path id="Vector_28" d="M131.455 87.4287C129.843 86.6793 129.193 85.2088 129.334 84.8412C129.476 84.4735 134.523 80.769 133.576 75.0425" stroke="#934735" stroke-width="0.55" stroke-linecap="round" stroke-linejoin="round"/>
<path id="Vector_29" d="M137.648 67.8737C137.196 70.8572 144.449 73.7841 145.566 71.8894C146.57 70.2774 138.383 63.4905 137.648 67.8737Z" fill="#604730"/>
<path id="Vector_30" d="M125.531 69.8391C125.531 70.7016 133.392 70.5319 133.279 67.5202C133.166 64.5085 125.333 67.2657 125.531 69.8391Z" fill="#604730"/>
<path id="Vector_31" d="M132.205 90.4404C134.905 89.7208 137.539 88.7749 140.08 87.6125C140.08 87.6125 140.886 92.5896 137.705 93.5087C137.142 93.6703 136.553 93.719 135.972 93.652C135.39 93.5851 134.828 93.4038 134.317 93.1187C133.805 92.8335 133.356 92.4501 132.993 91.9904C132.631 91.5308 132.363 91.004 132.205 90.4404Z" fill="white" stroke="#934735" stroke-width="0.55" stroke-linecap="round" stroke-linejoin="round"/>
<path id="Vector_32" d="M173.195 36.5971C171.993 40.3158 167.667 36.4698 167.327 41.7721C166.988 47.0745 156.383 45.5898 153.188 40.4289C150.529 36.187 143.007 37.7848 138.582 42.267C138.143 41.0652 136.192 40.0188 136.701 38.6756C137.337 36.9647 139.062 36.6678 141.056 36.5971C143.05 36.5264 142.668 30.7999 141.721 29.2869C140.773 27.774 141.494 23.9846 144.704 24.2108C147.914 24.4371 149.158 23.7867 149.441 22.2737C149.635 21.748 149.936 21.268 150.324 20.8639C150.713 20.4598 151.18 20.1402 151.698 19.9252C152.216 19.7102 152.772 19.6043 153.333 19.6143C153.893 19.6243 154.445 19.7498 154.955 19.9831C157.458 21.284 159.607 19.8417 161.12 18.4136C161.204 18.3227 161.299 18.242 161.403 18.1733C162.633 21.6799 163.538 26.459 168.303 26.8691C174.991 27.4771 174.411 32.8642 173.195 36.5971Z" fill="#604730"/>
</g>
<g id="hand">
<path id="Vector_33" d="M35.3489 138.614C35.9427 134.81 46.6605 131.968 52.8536 130.781L55.2291 146.136C55.2291 146.136 38.1344 143.69 35.3489 138.614Z" fill="#FCC71F"/>
<path id="Vector_34" d="M45.2889 146.786C44.0729 130.144 44.0729 116.16 43.7194 110.858C43.3659 105.556 43.6346 99.9139 49.8701 97.3405C49.8701 97.3405 49.8701 92.4341 56.9399 91.5292C56.9399 91.5292 56.0491 87.1318 61.9877 87.2873C61.9752 86.8743 62.0587 86.464 62.2316 86.0886C62.4045 85.7133 62.662 85.3832 62.984 85.1242C63.306 84.8652 63.6837 84.6844 64.0874 84.5961C64.4911 84.5077 64.9097 84.5142 65.3105 84.6149C66.3407 84.7183 67.3357 85.0466 68.225 85.5768C69.1144 86.107 69.8764 86.8261 70.4573 87.6832C75.6182 86.5803 78.5027 91.9251 78.2482 96.3507C77.9936 100.776 77.6543 105.612 75.5334 110.038C73.4124 114.463 70.6835 121.844 70.6835 121.844L70.8532 131.191C70.8532 131.191 66.9507 161.209 45.2889 146.786Z" fill="#B25E47"/>
<path id="Vector_35" d="M43.7195 110.858C43.3518 105.556 43.6346 99.9139 49.8701 97.3405C49.8701 97.3405 49.8701 92.4341 56.9399 91.5292C56.9399 91.5292 56.0491 87.1318 61.9877 87.2873C61.9753 86.8743 62.0587 86.464 62.2316 86.0886C62.4045 85.7133 62.6621 85.3832 62.9841 85.1242C63.3061 84.8652 63.6838 84.6844 64.0874 84.5961C64.4911 84.5077 64.9098 84.5142 65.3105 84.6149C66.3407 84.7183 67.3357 85.0466 68.2251 85.5768C69.1144 86.107 69.8765 86.8261 70.4573 87.6832C75.6182 86.5803 78.5027 91.9251 78.2482 96.3507" stroke="#934735" stroke-width="0.55" stroke-linecap="round" stroke-linejoin="round"/>
<path id="Vector_36" d="M70.4997 87.6549C65.1832 90.2707 61.2807 95.1772 62.8785 97.5526C64.4763 99.928 70.4997 96.9305 71.3622 96.1386" stroke="#934735" stroke-width="0.55" stroke-linecap="round" stroke-linejoin="round"/>
<path id="Vector_37" d="M61.5778 87.259C63.6672 87.8234 65.6734 88.6601 67.5446 89.7476" stroke="#934735" stroke-width="0.55" stroke-linecap="round" stroke-linejoin="round"/>
<path id="Vector_38" d="M57.053 91.5292C59.3838 91.6244 61.668 92.2123 63.7551 93.2542" stroke="#934735" stroke-width="0.55" stroke-linecap="round" stroke-linejoin="round"/>
<path id="Vector_39" d="M62.7089 104.424C64.4904 103.01 66.0317 100.706 65.5368 98.4999" stroke="#934735" stroke-width="0.55" stroke-linecap="round" stroke-linejoin="round"/>
<path id="Vector_40" d="M49.8701 97.3405C54.112 95.6013 58.3538 93.6218 59.7678 96.5204C61.1817 99.419 61.7473 108.327 59.7678 109.529C57.7883 110.731 54.4513 109.741 53.8858 107.408C53.3202 105.075 52.896 101.893 52.896 101.893" stroke="#934735" stroke-width="0.55" stroke-linecap="round" stroke-linejoin="round"/>
<path id="Vector_41" d="M57.7458 110.038C59.5274 112.244 58.9477 120.049 56.9823 122.65" stroke="#934735" stroke-width="0.55" stroke-linecap="round" stroke-linejoin="round"/>
<path id="Vector_42" d="M71.7581 244.632C68.2798 251.193 63.2744 254.77 56.6995 252.536C44.1719 248.294 39.1948 236.29 37.3708 224.568C35.462 212.337 36.9607 200.389 36.9042 197.858C36.7769 192.881 35.4054 138.642 35.4054 138.642C37.5829 139.505 40.8633 139.519 44.8506 138.783C47.8837 138.183 50.8594 137.322 53.7444 136.21C59.7937 133.904 65.5466 130.885 70.8815 127.217L71.1219 127.062C71.1219 127.062 72.1965 140.509 73.667 155.963C74.9113 169.198 76.4949 183.903 77.7816 192.91C79.9025 207.417 78.6158 231.751 71.7581 244.632Z" fill="#FED81D"/>
<path id="Vector_43" d="M71.7582 244.632C68.2799 251.193 63.2745 254.77 56.6996 252.536C44.172 248.294 39.1948 236.29 37.3708 224.568C39.604 228.353 42.2347 231.889 45.2183 235.116C54.4231 245 64.1229 247.135 71.7582 244.632Z" fill="#FCC71F"/>
<path id="Vector_44" d="M71.0653 127.034C71.0653 127.034 74.7981 173.383 77.725 192.881C79.3223 205.283 78.9309 217.86 76.5656 230.139" stroke="#F7AD2B" stroke-width="0.55" stroke-linecap="round" stroke-linejoin="round"/>
</g>
<g id="hand_2">
<path id="Vector_45" d="M203.367 182.796L158.876 164.213C155.367 162.747 151.334 164.403 149.868 167.913L123.448 231.165C121.983 234.674 123.639 238.707 127.148 240.173L171.639 258.756C175.148 260.222 179.181 258.566 180.647 255.056L207.067 191.804C208.533 188.295 206.876 184.262 203.367 182.796Z" fill="#EDEDED"/>
<path id="Vector_46" d="M198.375 180.702L158.882 164.205C155.372 162.74 151.339 164.396 149.874 167.905L123.453 231.158C121.988 234.667 123.644 238.7 127.153 240.166L166.647 256.662C170.156 258.128 174.189 256.471 175.655 252.962L202.075 189.71C203.541 186.2 201.884 182.167 198.375 180.702Z" fill="#F9F9F9" stroke="#DDDDDD" stroke-width="0.74" stroke-linecap="round" stroke-linejoin="round"/>
<path id="Vector_47" d="M161.488 174.726C161.485 175.318 161.307 175.897 160.976 176.388C160.644 176.879 160.175 177.261 159.627 177.485C159.079 177.71 158.477 177.768 157.897 177.65C157.316 177.533 156.783 177.246 156.365 176.827C155.948 176.407 155.664 175.873 155.549 175.292C155.434 174.711 155.495 174.109 155.722 173.562C155.949 173.015 156.333 172.547 156.826 172.219C157.319 171.89 157.898 171.714 158.49 171.714C158.885 171.714 159.276 171.792 159.64 171.944C160.005 172.096 160.336 172.318 160.615 172.597C160.893 172.877 161.114 173.209 161.263 173.575C161.413 173.94 161.489 174.331 161.488 174.726V174.726Z" fill="#EDEDED"/>
<path id="Vector_48" d="M166.436 177.738C166.436 178.034 166.349 178.324 166.184 178.571C166.019 178.817 165.785 179.009 165.511 179.123C165.237 179.236 164.936 179.266 164.645 179.208C164.354 179.15 164.087 179.007 163.878 178.798C163.668 178.588 163.525 178.321 163.468 178.03C163.41 177.74 163.44 177.438 163.553 177.164C163.666 176.89 163.858 176.656 164.105 176.492C164.351 176.327 164.641 176.239 164.938 176.239C165.135 176.237 165.331 176.275 165.513 176.349C165.696 176.424 165.862 176.534 166.002 176.674C166.141 176.813 166.252 176.979 166.326 177.162C166.401 177.345 166.438 177.541 166.436 177.738V177.738Z" fill="#EDEDED"/>
<path id="Vector_49" d="M164.245 227.424C161.304 226.406 159.777 220.722 159.381 215.83L170.919 217.244C170.919 217.244 171.004 228.174 164.245 227.424Z" fill="#FCC71F"/>
<path id="Vector_50" d="M168.119 224.54C164.848 222.2 161.46 220.029 157.967 218.036C156.652 217.314 149.2 216.48 143.997 213.624C140.504 211.643 137.137 209.447 133.916 207.049L131.865 210.867C131.865 210.867 127.836 206.512 127.228 202.581C126.62 198.65 128.246 198.523 129.207 197.689C130.169 196.855 129.561 195.596 129.504 193.56C129.447 191.524 131.172 191.114 131.71 190.407C132.247 189.7 131.71 187.834 131.71 185.331C131.71 182.828 134.538 182.701 135.047 181.273C135.556 179.845 135.938 175.235 139.996 176.437C144.054 177.639 161.728 190.76 162.916 191.354C164.633 191.973 166.39 192.474 168.176 192.853C168.176 192.853 182.556 215.462 168.119 224.54Z" fill="#B25E47"/>
<path id="Vector_51" d="M133.916 207.049L131.865 210.867C131.865 210.867 127.836 206.512 127.228 202.581C126.62 198.65 128.246 198.523 129.207 197.689C130.169 196.855 129.561 195.596 129.504 193.56C129.447 191.524 131.172 191.114 131.71 190.407C132.247 189.7 131.71 187.834 131.71 185.331C131.71 182.828 134.538 182.701 135.047 181.273C135.556 179.845 135.938 175.235 139.996 176.437" stroke="#934735" stroke-width="0.55" stroke-linecap="round" stroke-linejoin="round"/>
<path id="Vector_52" d="M133.916 207.049C131.894 205.367 131.469 205.084 131.469 205.084" stroke="#934735" stroke-width="0.55" stroke-linecap="round" stroke-linejoin="round"/>
<path id="Vector_53" d="M268.156 239.457C264.452 250.769 250.651 260.893 219.177 249.001L217.466 248.337C184.775 235.399 164.231 227.424 164.231 227.424C167.061 215.462 167.061 203.005 164.231 191.043C183.022 196.303 232.708 206.498 250.354 211.673C251.514 212.012 252.631 212.38 253.677 212.776C268.481 218.276 271.733 228.456 268.156 239.457Z" fill="#FED81D"/>
<path id="Vector_54" d="M217.466 248.337C184.775 235.399 164.245 227.424 164.245 227.424" stroke="#F7AD2B" stroke-width="0.55" stroke-linecap="round" stroke-linejoin="round"/>
<path id="Vector_55" d="M164.245 191.043C181.283 195.808 223.8 204.645 244.684 210.117" stroke="#F7AD2B" stroke-width="0.55" stroke-linecap="round" stroke-linejoin="round"/>
<path id="Vector_56" d="M268.156 239.457C264.452 250.769 250.651 260.893 219.177 249.001C219.177 249.001 228.452 238.34 241.447 240.221C254.441 242.101 267.251 236.799 257.269 221.641C255.495 218.954 254.274 215.94 253.677 212.776C268.481 218.276 271.734 228.456 268.156 239.457Z" fill="#FCC71F"/>
</g>
</g>
</g>
</svg>
