<svg width="947" height="721" viewBox="0 0 947 721" fill="none" xmlns="http://www.w3.org/2000/svg">
<g id="homepage">
<g id="background">
<path id="Vector" d="M375.781 169.495C377.675 168.053 379.581 166.635 381.523 165.253" stroke="#DDDDDD" stroke-width="3" stroke-linecap="round" stroke-linejoin="round"/>
<path id="Vector_2" d="M393.005 157.611C424.613 137.723 461.053 127.162 498.24 127.112C513.81 127.105 529.326 128.965 544.466 132.652" stroke="#DDDDDD" stroke-width="3" stroke-linecap="round" stroke-linejoin="round" stroke-dasharray="11.57 11.57"/>
<path id="Vector_3" d="M551.036 134.394C553.316 135.035 555.589 135.716 557.854 136.437" stroke="#DDDDDD" stroke-width="3" stroke-linecap="round" stroke-linejoin="round"/>
<path id="Vector_4" d="M393.94 591.761C391.916 590.559 389.904 589.237 387.927 587.927" stroke="#DDDDDD" stroke-width="3" stroke-linecap="round" stroke-linejoin="round"/>
<path id="Vector_5" d="M376.433 579.732C334.8 548.068 303.324 500.638 288.693 445.001" stroke="#DDDDDD" stroke-width="3" stroke-linecap="round" stroke-linejoin="round" stroke-dasharray="11.9 11.9"/>
<path id="Vector_6" d="M286.917 438.056C286.373 435.724 285.856 433.381 285.367 431.026" stroke="#DDDDDD" stroke-width="3" stroke-linecap="round" stroke-linejoin="round"/>
<path id="Vector_7" d="M714.701 408.747C714.409 411.15 714.085 413.53 713.73 415.885" stroke="#DDDDDD" stroke-width="3" stroke-linecap="round" stroke-linejoin="round"/>
<path id="Vector_8" d="M711.161 430.377C707.726 447.197 702.683 463.638 696.104 479.465" stroke="#DDDDDD" stroke-width="3" stroke-linecap="round" stroke-linejoin="round" stroke-dasharray="12.25 12.25"/>
<path id="Vector_9" d="M693.192 486.254C692.206 488.441 691.196 490.608 690.162 492.755" stroke="#DDDDDD" stroke-width="3" stroke-linecap="round" stroke-linejoin="round"/>
<path id="Vector_10" d="M336.919 496.961L271.884 506.719C270.722 506.888 269.539 506.612 268.566 505.946C267.593 505.28 266.898 504.271 266.616 503.114L259.087 467.448C258.964 466.89 258.957 466.312 259.068 465.752C259.178 465.191 259.402 464.66 259.727 464.192C260.051 463.725 260.468 463.331 260.951 463.037C261.435 462.743 261.973 462.555 262.532 462.485L327.567 452.74C328.729 452.571 329.912 452.846 330.885 453.513C331.858 454.179 332.553 455.188 332.835 456.345L340.364 491.926C340.498 492.489 340.514 493.075 340.409 493.644C340.304 494.214 340.082 494.754 339.756 495.23C339.431 495.706 339.01 496.106 338.52 496.404C338.031 496.703 337.486 496.893 336.919 496.961Z" fill="#F9F9F9" stroke="#EDEDED" stroke-width="2" stroke-linecap="round" stroke-linejoin="round"/>
<path id="Vector_11" d="M268.711 468.302C269.41 468.169 307.479 480.811 307.479 480.811L325.235 458.075" stroke="#EDEDED" stroke-width="2" stroke-linecap="round" stroke-linejoin="round"/>
<path id="Vector_12" d="M278.536 494.258L299.725 478.251" stroke="#EDEDED" stroke-width="2" stroke-linecap="round" stroke-linejoin="round"/>
<path id="Vector_13" d="M317.659 478.251L333.782 483.43" stroke="#EDEDED" stroke-width="2" stroke-linecap="round" stroke-linejoin="round"/>
<path id="Vector_14" d="M364.252 552.334L347.324 555.567C347.096 555.609 346.884 555.713 346.709 555.867L336.055 565.312C335.872 565.47 335.65 565.574 335.413 565.612C335.176 565.65 334.933 565.62 334.712 565.527C334.49 565.434 334.298 565.28 334.157 565.083C334.016 564.886 333.931 564.654 333.912 564.411L332.101 535.943C332.083 535.703 332.133 535.463 332.244 535.25C332.355 535.038 332.523 534.861 332.728 534.742C332.908 534.636 333.113 534.581 333.32 534.581C333.528 534.581 333.732 534.636 333.912 534.742L364.595 549.883C364.84 550.002 365.042 550.197 365.171 550.441C365.299 550.684 365.348 550.963 365.309 551.236C365.271 551.51 365.148 551.764 364.958 551.961C364.767 552.158 364.52 552.289 364.252 552.334Z" fill="white" stroke="#EDEDED" stroke-width="2" stroke-linecap="round" stroke-linejoin="round"/>
<path id="Vector_15" d="M364.252 552.334L347.324 555.567C347.096 555.609 346.884 555.713 346.709 555.867L332.728 534.742C332.908 534.636 333.113 534.581 333.32 534.581C333.528 534.581 333.732 534.636 333.912 534.742L364.595 549.883C364.84 550.002 365.042 550.197 365.171 550.441C365.299 550.684 365.348 550.963 365.309 551.236C365.271 551.51 365.148 551.764 364.958 551.961C364.767 552.158 364.52 552.289 364.252 552.334Z" fill="#EDEDED" stroke="#EDEDED" stroke-width="2" stroke-linecap="round" stroke-linejoin="round"/>
</g>
<g id="Girl">
<g id="body">
<g id="Group">
<path id="Vector_16" d="M365.495 382.959C370.916 385.723 377.936 380.556 385.737 373.562L377.285 365.871C377.285 365.871 364.027 378.417 365.495 382.959Z" fill="#A7CAF0"/>
<path id="Vector_17" d="M437.763 349.877L418.195 390.361H377.036L370.182 370.918L393.478 349.877H437.763Z" fill="#FEBD9D"/>
<path id="Vector_18" d="M405.872 349.877L386.601 380.448" stroke="#EF8A66" stroke-width="0.75" stroke-linecap="round" stroke-linejoin="round"/>
<path id="Vector_19" d="M398.533 353.038C384.577 361.125 365.495 382.959 365.495 382.959L360.369 393.293L357.386 399.302H256.128C253.76 390.638 251.724 379.354 250.209 370.209C249.025 363.132 248.268 357.34 247.96 355.068L247.83 354.047C245.249 356.366 243.995 356.45 243.995 356.45L239.26 369.152L238.822 370.354C222.012 358.938 191.258 356.919 191.258 356.919L195.39 342.751C194.149 339.839 193.802 336.614 194.395 333.498C195.07 329.954 204.327 313.515 213.655 299.72C217.333 294.108 221.412 288.778 225.86 283.773C226.226 283.389 226.605 283.016 226.984 282.668C238.242 272.153 256.897 273.679 269.161 274.809C270.984 274.977 272.712 275.097 274.322 275.17C277.946 275.363 281.577 275.363 285.201 275.17C288.172 275.013 289.806 274.785 289.806 274.785C290.184 273.031 290.54 271.18 290.895 269.149C293.108 256.015 294.351 238.483 292.374 226.959L323.531 241.078C324.063 246.822 326.147 259.428 327.579 267.719C328.384 272.358 328.964 275.65 328.964 275.65C331.474 275.182 333.841 274.761 336.067 274.376C367.696 268.933 375.841 270.976 384.6 286.633C384.837 287.042 385.062 287.475 385.299 287.931C390.697 298.746 394.378 320.376 396.426 335.661C397.882 345.707 398.533 353.038 398.533 353.038Z" fill="#C3DCF8"/>
<path id="Vector_20" d="M398.533 353.038C384.849 360.981 366.205 382.154 365.506 382.935C365.755 382.406 369.827 373.851 370.241 370.918C370.656 367.986 369.212 359.31 366.974 351.151L396.568 335.71C397.882 345.707 398.533 353.038 398.533 353.038Z" fill="#C3DCF8"/>
<path id="Vector_21" d="M293.156 357.712C292.931 369.224 266.367 370.846 250.245 370.209C249.061 363.132 248.303 357.34 247.996 355.068L247.865 354.047C253.724 348.013 258.567 341.042 262.201 333.414C271.671 339.976 259.525 346.717 259.064 349.877C257.809 358.541 293.475 341.273 293.156 357.712Z" fill="#A7CAF0"/>
<path id="Vector_22" d="M385.417 287.979C376.184 284.723 365.814 284.831 358.629 296.475C342.447 322.696 312.072 343.148 281.685 312.193C277.53 307.847 272.984 303.905 268.108 300.417C250.15 287.943 234.963 290.467 213.726 299.708C217.404 294.096 221.483 288.766 225.931 283.762C226.297 283.377 226.676 283.005 227.055 282.656C238.313 272.141 256.968 273.668 269.232 274.797C271.055 274.965 272.783 275.086 274.393 275.158C278.017 275.351 281.648 275.351 285.272 275.158C288.243 275.001 289.877 274.773 289.877 274.773C290.256 273.019 290.611 271.168 290.966 269.137C293.179 256.003 294.422 238.471 292.445 226.947L323.602 241.066C324.134 246.81 326.218 259.416 327.65 267.707C328.455 272.346 329.035 275.638 329.035 275.638C331.545 275.17 333.912 274.749 336.138 274.365C367.767 268.921 375.912 270.964 384.671 286.622C384.955 287.09 385.18 287.523 385.417 287.979Z" fill="#D0E5F7"/>
<path id="Vector_23" d="M336.185 274.425C336.09 282.548 335.226 297.352 331.746 307.819C327.248 321.398 321.944 315.882 316.12 310.523C310.853 305.644 291.652 289.409 274.405 275.194C278.029 275.387 281.66 275.387 285.284 275.194C288.255 275.037 289.889 274.809 289.889 274.809C290.267 273.055 290.622 271.204 290.978 269.173C303.49 268.344 318.5 267.527 327.674 267.743C328.479 272.382 329.059 275.674 329.059 275.674C331.545 275.182 333.912 274.809 336.185 274.425Z" fill="#83ADDF"/>
<path id="Vector_24" d="M323.921 305.475C323.921 305.475 297.263 287.066 285.284 275.181C288.255 275.025 289.889 274.797 289.889 274.797C292.741 261.494 294.73 240.249 292.457 226.971L312.711 236.139L323.614 241.09C324.004 245.332 325.259 253.383 326.455 260.617C327.78 268.62 329.047 275.662 329.047 275.662C330.018 298.998 323.921 305.475 323.921 305.475Z" fill="#FEBD9D"/>
<path id="Vector_25" d="M365.495 382.959C365.743 382.43 369.815 373.875 370.23 370.942C370.644 368.01 369.2 359.334 366.962 351.175C366.844 350.754 366.726 350.322 366.596 349.901" stroke="#83ADDF" stroke-width="0.75" stroke-linecap="round" stroke-linejoin="round"/>
<path id="Vector_26" d="M326.443 260.654C305.407 261.963 307.775 239.011 307.953 238.435L312.688 236.176L323.59 241.126C323.992 245.368 325.247 253.419 326.443 260.654Z" fill="#F4A789"/>
<path id="Vector_27" d="M191.33 356.895C190.738 358.661 190.738 360.584 203.936 364.357L205.973 355.573C205.973 355.573 193.969 352.281 191.33 356.895Z" fill="#A7CAF0"/>
<path id="Vector_28" d="M198.562 352.269C195.461 362.531 184.641 396.898 184.641 396.898C181.706 409.504 218.532 417.735 231.636 396.322L238.845 361.846C226.931 353.976 212.68 350.587 198.562 352.269Z" fill="#FEBD9D"/>
<path id="Vector_29" d="M259.111 339.219C259.065 339.287 259.025 339.359 258.993 339.435C257.43 341.97 255.69 344.554 253.796 347.222L253.666 347.402C251.89 349.754 249.952 351.974 247.865 354.047C245.285 356.366 244.03 356.45 244.03 356.45L238.893 370.33C238.372 369.981 237.839 369.633 237.283 369.296C227.907 363.528 215.005 360.356 205.321 358.673C202.137 358.121 199.296 357.736 197.035 357.472C193.555 357.051 191.401 356.907 191.401 356.907L195.532 342.739C194.291 339.827 193.944 336.602 194.537 333.487C195.212 329.942 204.469 313.503 213.797 299.708C217.475 294.096 221.554 288.766 226.002 283.762C226.369 283.377 226.747 283.005 227.126 282.656C243.083 275.074 263.822 276.936 267.906 298.794C268.013 299.335 268.108 299.876 268.179 300.417C270.451 314.969 266.912 326.517 259.111 339.219Z" fill="#C3DCF8"/>
<path id="Vector_30" d="M268.108 300.417C250.15 287.943 234.963 290.467 213.726 299.708C217.404 294.096 221.483 288.766 225.931 283.762C226.297 283.377 226.676 283.005 227.055 282.656C243.012 275.074 263.751 276.936 267.835 298.794C267.942 299.371 268.037 299.912 268.108 300.417Z" fill="#D0E5F7"/>
<path id="Vector_31" d="M202.019 345.744C213.134 345.744 224.001 350.358 225.836 351.235" stroke="#83ADDF" stroke-width="0.75" stroke-linecap="round" stroke-linejoin="round"/>
<path id="Vector_32" d="M247.865 354.047C249.952 351.974 251.89 349.754 253.666 347.402L253.796 347.222C255.667 344.724 257.402 342.125 258.993 339.435C259.025 339.359 259.065 339.287 259.111 339.218C260.366 337.068 261.408 335.085 262.201 333.414C262.852 332.117 263.325 331.011 263.657 330.194" stroke="#83ADDF" stroke-width="0.75" stroke-linecap="round" stroke-linejoin="round"/>
<path id="Vector_33" d="M344.092 344.013C344.519 349.697 341.228 351.151 341.228 351.151C341.678 364.97 337.677 371.579 331.024 373.334C324.371 375.088 307.183 378.789 307.183 378.789C305.402 379.525 303.683 380.409 302.046 381.433C300.128 382.539 297.749 383.957 294.943 385.639C286.396 390.71 272.937 395.444 256.945 404C228.606 419.165 208.411 410.946 207.062 394.856C204.623 365.403 241.473 363.48 254.932 361.209C264.687 359.551 279.791 355.621 289.155 353.422C292.706 352.605 295.369 352.028 296.624 351.908C301.122 351.5 310.45 346.501 326.822 341.273C343.193 336.046 356.415 333.018 356.415 336.683C356.415 340.348 344.092 344.013 344.092 344.013Z" fill="#FEBD9D"/>
<path id="Vector_34" d="M326.845 341.273C343.205 336.022 356.439 333.018 356.439 336.683C356.439 340.348 344.045 344.049 344.045 344.049C344.471 349.733 341.18 351.187 341.18 351.187C341.63 365.006 337.629 371.615 330.977 373.37" stroke="#EF8A66" stroke-width="0.75" stroke-linecap="round" stroke-linejoin="round"/>
<path id="Vector_35" d="M213.927 374.92C221.03 367.938 232.406 364.922 242.018 363.216" stroke="#EF8A66" stroke-width="0.75" stroke-linecap="round" stroke-linejoin="round"/>
<path id="Vector_36" d="M302.046 381.433C300.128 382.539 297.749 383.957 294.943 385.639C288.35 378.177 284.929 366.616 289.155 353.386C292.706 352.569 295.369 351.992 296.624 351.872C293.57 360.344 293.002 374.163 302.046 381.433Z" fill="#683F1D"/>
<path id="Vector_37" d="M344.092 344.013L333.971 347.342" stroke="#EF8A66" stroke-width="0.75" stroke-linecap="round" stroke-linejoin="round"/>
<path id="Vector_38" d="M341.228 351.151L335.001 353.446" stroke="#EF8A66" stroke-width="0.75" stroke-linecap="round" stroke-linejoin="round"/>
<path id="Vector_39" d="M335.676 360.079L340.979 358.613" stroke="#EF8A66" stroke-width="0.75" stroke-linecap="round" stroke-linejoin="round"/>
<path id="Vector_40" d="M299.654 368.912C299.654 370.63 299.153 372.31 298.212 373.739C297.272 375.167 295.935 376.281 294.371 376.938C292.807 377.596 291.086 377.768 289.426 377.433C287.766 377.098 286.241 376.27 285.044 375.055C283.847 373.84 283.032 372.292 282.702 370.607C282.372 368.921 282.541 367.174 283.189 365.587C283.837 363.999 284.934 362.642 286.341 361.688C287.749 360.733 289.403 360.224 291.096 360.224C293.366 360.224 295.543 361.139 297.148 362.768C298.753 364.398 299.654 366.607 299.654 368.912Z" fill="white" stroke="#683F1D" stroke-linecap="round" stroke-linejoin="round"/>
</g>
</g>
<g id="bg">
<path id="Vector_41" d="M418.195 208.117V387.501H166.222V208.117C166.221 205.741 166.68 203.388 167.575 201.192C168.47 198.997 169.782 197.001 171.436 195.321C173.09 193.64 175.055 192.307 177.217 191.397C179.379 190.488 181.697 190.02 184.038 190.02H400.38C402.72 190.02 405.038 190.488 407.2 191.397C409.362 192.307 411.327 193.64 412.981 195.321C414.636 197.001 415.948 198.997 416.842 201.192C417.737 203.388 418.197 205.741 418.195 208.117Z" stroke="#DDDDDD" stroke-width="2" stroke-linecap="round" stroke-linejoin="round"/>
<path id="Vector_42" d="M418.195 208.117V208.922H166.222V208.117C166.221 205.741 166.68 203.388 167.575 201.192C168.47 198.997 169.782 197.001 171.436 195.321C173.09 193.64 175.055 192.307 177.217 191.397C179.379 190.488 181.697 190.02 184.038 190.02H400.38C402.72 190.02 405.038 190.488 407.2 191.397C409.362 192.307 411.327 193.64 412.981 195.321C414.636 197.001 415.948 198.997 416.842 201.192C417.737 203.388 418.197 205.741 418.195 208.117Z" stroke="#DDDDDD" stroke-width="2" stroke-linecap="round" stroke-linejoin="round"/>
<path id="Vector_43" d="M384.091 199.477C384.091 200.128 383.901 200.764 383.545 201.306C383.188 201.847 382.682 202.269 382.089 202.519C381.496 202.768 380.844 202.833 380.215 202.706C379.586 202.579 379.008 202.265 378.554 201.805C378.101 201.344 377.792 200.758 377.667 200.119C377.542 199.48 377.606 198.818 377.851 198.217C378.097 197.615 378.513 197.101 379.046 196.739C379.579 196.377 380.206 196.184 380.848 196.184C381.274 196.184 381.696 196.269 382.089 196.435C382.483 196.6 382.84 196.843 383.141 197.148C383.443 197.454 383.681 197.817 383.844 198.217C384.007 198.616 384.091 199.044 384.091 199.477Z" fill="#DDDDDD"/>
<path id="Vector_44" d="M391.419 202.769C393.21 202.769 394.662 201.295 394.662 199.477C394.662 197.658 393.21 196.184 391.419 196.184C389.627 196.184 388.175 197.658 388.175 199.477C388.175 201.295 389.627 202.769 391.419 202.769Z" fill="#EDEDED"/>
<path id="Vector_45" d="M405.233 199.477C405.233 200.128 405.043 200.765 404.686 201.307C404.329 201.849 403.821 202.271 403.228 202.52C402.635 202.769 401.982 202.833 401.353 202.705C400.723 202.577 400.145 202.262 399.692 201.801C399.239 201.339 398.931 200.751 398.807 200.112C398.683 199.472 398.749 198.81 398.997 198.208C399.244 197.607 399.661 197.093 400.196 196.733C400.731 196.373 401.36 196.182 402.002 196.184C402.427 196.184 402.848 196.269 403.241 196.435C403.634 196.601 403.991 196.843 404.291 197.149C404.591 197.455 404.829 197.818 404.991 198.218C405.152 198.617 405.235 199.045 405.233 199.477Z" fill="#DDDDDD"/>
</g>
<g id="Calendar">
<path id="Vector_46" d="M357.055 356.775C361.103 352.413 367.862 351.872 367.862 351.872L375.687 360.079C375.687 360.079 377.912 335.842 367.862 302.592C365.956 318.826 360.073 344.95 357.055 356.775Z" fill="#DDDDDD" stroke="#DDDDDD" stroke-linecap="round" stroke-linejoin="round"/>
<path id="Vector_47" d="M434.259 297.665C445.564 334.075 445.019 360.079 445.019 360.079H375.687C375.687 360.079 366.347 323.945 367.862 302.592C367.862 302.592 366.548 297.557 370.893 297.112C375.237 296.667 434.259 297.665 434.259 297.665Z" fill="#F9F9F9" stroke="#DDDDDD" stroke-linecap="round" stroke-linejoin="round"/>
<path id="Vector_48" d="M378.705 297.304C378.699 297.204 378.699 297.104 378.705 297.004C378.806 296.031 379.182 295.109 379.788 294.349C380.394 293.589 381.205 293.024 382.121 292.722C383.037 292.419 384.02 292.393 384.95 292.646C385.881 292.898 386.719 293.42 387.364 294.146C388.009 294.873 388.432 295.773 388.583 296.739C388.735 297.705 388.607 298.694 388.215 299.588C387.824 300.481 387.186 301.241 386.379 301.774C385.571 302.307 384.628 302.591 383.665 302.592" stroke="#EDEDED" stroke-linecap="round" stroke-linejoin="round"/>
<path id="Vector_49" d="M413.934 297.304C414.061 296.342 414.459 295.436 415.079 294.697C415.7 293.957 416.517 293.415 417.433 293.134C418.349 292.853 419.326 292.846 420.246 293.114C421.166 293.382 421.99 293.912 422.621 294.643C423.252 295.374 423.662 296.273 423.803 297.234C423.943 298.195 423.808 299.177 423.414 300.062C423.019 300.947 422.382 301.698 421.579 302.226C420.775 302.753 419.839 303.035 418.882 303.036C418.05 303.035 417.234 302.811 416.514 302.387" stroke="#EDEDED" stroke-linecap="round" stroke-linejoin="round"/>
<path id="Vector_50" d="M392.851 297.088C392.906 295.77 393.443 294.521 394.359 293.585C395.274 292.649 396.501 292.094 397.799 292.029C399.165 292.173 400.43 292.825 401.35 293.861C402.269 294.896 402.779 296.241 402.779 297.635C402.779 299.029 402.269 300.374 401.35 301.409C400.43 302.444 399.165 303.097 397.799 303.241C396.683 303.223 395.611 302.796 394.781 302.039" stroke="#EDEDED" stroke-linecap="round" stroke-linejoin="round"/>
<path id="Vector_51" d="M403.41 297.208C403.535 296.247 403.93 295.342 404.549 294.603C405.167 293.864 405.982 293.321 406.896 293.04C407.81 292.758 408.784 292.75 409.703 293.016C410.622 293.282 411.445 293.811 412.075 294.539C412.706 295.268 413.116 296.166 413.256 297.125C413.397 298.084 413.263 299.064 412.87 299.948C412.476 300.831 411.841 301.581 411.038 302.108C410.236 302.634 409.302 302.915 408.346 302.916" stroke="#EDEDED" stroke-linecap="round" stroke-linejoin="round"/>
<path id="Vector_52" d="M430.542 309.369H381.961V315.005H430.542V309.369Z" stroke="#DDDDDD" stroke-linecap="round" stroke-linejoin="round"/>
<path id="Vector_53" d="M393.999 353.939L393.384 349.192L390.259 324.762L389.738 320.749" stroke="#EDEDED" stroke-linecap="round" stroke-linejoin="round"/>
<path id="Vector_54" d="M409.767 353.939L409.116 348.856L406.062 325.075L405.505 320.749" stroke="#EDEDED" stroke-linecap="round" stroke-linejoin="round"/>
<path id="Vector_55" d="M421.285 320.737L425.534 353.951" stroke="#EDEDED" stroke-linecap="round" stroke-linejoin="round"/>
<path id="Vector_56" d="M431.063 327.382H406.358H390.59H383.677" stroke="#EDEDED" stroke-linecap="round" stroke-linejoin="round"/>
<path id="Vector_57" d="M433.466 341.886H408.216H392.449H386.068" stroke="#EDEDED" stroke-linecap="round" stroke-linejoin="round"/>
<g id="Vector_58">
<path d="M395.088 321.89C387.252 325.952 383.476 342.884 396.769 344.013C416.36 345.671 417.296 321.181 400.131 323.489" fill="#F9F9F9"/>
<path d="M395.088 321.89C387.252 325.952 383.476 342.884 396.769 344.013C416.36 345.671 417.296 321.181 400.131 323.489" stroke="#DDDDDD" stroke-width="2" stroke-linecap="round" stroke-linejoin="round"/>
</g>
<path id="Vector_59" d="M408.216 341.886H392.449L390.59 327.382H406.358L408.216 341.886Z" fill="#EDEDED"/>
<path id="Vector_60" d="M436.543 339.699C436.875 345.215 447.197 339.146 446.487 334.316C445.777 329.485 436.153 333.306 436.543 339.699Z" fill="#FEBD9D" stroke="#EF8A66" stroke-width="0.75" stroke-linecap="round" stroke-linejoin="round"/>
<path id="Vector_61" d="M434.791 332.273C435.17 337.801 446.795 331.732 446.037 326.889C445.279 322.047 434.353 325.892 434.791 332.273Z" fill="#FEBD9D" stroke="#EF8A66" stroke-width="0.75" stroke-linecap="round" stroke-linejoin="round"/>
<path id="Vector_62" d="M433.975 326.733C434.377 332.249 446.842 326.18 446.025 321.35C445.208 316.519 433.513 320.34 433.975 326.733Z" fill="#FEBD9D" stroke="#EF8A66" stroke-width="0.75" stroke-linecap="round" stroke-linejoin="round"/>
<path id="Vector_63" d="M432.223 319.896C432.637 324.907 445.492 319.403 444.652 315.017C443.812 310.631 431.737 314.104 432.223 319.896Z" fill="#FEBD9D" stroke="#EF8A66" stroke-width="0.75" stroke-linecap="round" stroke-linejoin="round"/>
<path id="Vector_64" d="M395.088 321.89C387.252 325.952 383.476 342.884 396.769 344.013C416.36 345.671 417.296 321.181 400.131 323.489" stroke="#DDDDDD" stroke-width="2" stroke-linecap="round" stroke-linejoin="round"/>
</g>
<g id="head">
<path id="Vector_65" d="M348.307 193.3C347.277 201.988 335.83 207.083 335.83 207.083L304.07 235.226C300.815 240.502 291.948 243.157 286.55 238.747C283.39 236.176 281.425 231.189 282.49 222.885C281.606 222.885 280.742 222.622 280.004 222.128C276.346 219.833 274.085 212.515 279.578 203.827C279.187 204.211 271.872 211.433 264.343 209.246C263.048 208.895 261.842 208.269 260.803 207.409C259.765 206.55 258.917 205.476 258.318 204.259C255.95 199.344 256.779 191.149 263.538 179.914C268.344 171.898 275.032 170.456 280.762 171.959C287.249 173.641 292.505 179.048 292.505 182.978C293.936 181.195 295.596 179.615 297.441 178.279C299.974 176.489 303.111 175.275 305.917 177.006C305.917 177.006 315.789 171.61 321.4 174.987C328.384 179.168 326.845 182.077 333.64 182.533C338.695 182.87 346.661 184.167 348.117 189.984C348.394 191.066 348.459 192.193 348.307 193.3Z" fill="#DD6819"/>
<path id="Vector_66" d="M292.505 182.978L279.602 203.803C278.68 204.678 277.695 205.481 276.654 206.206C273.754 208.249 269.114 210.58 264.379 209.21C263.084 208.859 261.877 208.233 260.839 207.373C259.8 206.514 258.953 205.44 258.353 204.223C273.056 203.911 278.229 199.741 275.21 191.534C272.405 183.891 269.493 174.29 280.797 171.922C285.22 173.04 289.063 175.813 291.558 179.685C292.146 180.682 292.472 181.816 292.505 182.978Z" fill="#CC5E0D"/>
<path id="Vector_67" d="M348.307 193.3C347.277 201.988 335.83 207.083 335.83 207.083L304.07 235.226C300.815 240.502 291.948 243.157 286.55 238.747C284.684 234.203 284.225 229.189 285.236 224.374C286.247 219.559 288.679 215.171 292.209 211.794C298.719 205.785 293.949 201.303 294.576 193.396C295.204 185.489 309.456 173.316 319.66 184.24C327.662 192.807 342.719 182.449 348.176 189.984C348.434 191.07 348.478 192.197 348.307 193.3Z" fill="#CC5E0D"/>
<path id="Vector_68" d="M328.834 250.8C314.558 249.31 300.069 234.277 300.069 234.277C294.624 240.574 283.887 231.165 289.202 223.33C292.682 218.175 298.127 221.239 299.453 224.051C301.662 222.603 303.282 220.395 304.015 217.831C304.748 215.268 304.544 212.523 303.442 210.099C302.274 207.124 301.769 203.923 301.963 200.726C306.792 193.276 319.601 191.57 319.601 191.57C321.494 193.596 323.797 195.182 326.351 196.219C328.905 197.256 331.65 197.72 334.398 197.578C334.398 197.578 338.789 206.29 342.364 215.146C342.435 215.339 342.53 215.555 342.601 215.747C343.607 218.271 344.542 220.794 345.276 223.101C345.347 223.33 345.406 223.534 345.477 223.75C346.065 225.573 346.501 227.442 346.78 229.338C347.928 238.867 343.098 252.35 328.834 250.8Z" fill="#FEBD9D"/>
<path id="Vector_69" d="M334.764 211.169C334.764 211.478 334.855 211.78 335.024 212.037C335.193 212.294 335.433 212.494 335.714 212.612C335.996 212.73 336.305 212.761 336.604 212.701C336.902 212.641 337.176 212.492 337.392 212.274C337.607 212.055 337.753 211.777 337.813 211.474C337.872 211.171 337.842 210.857 337.725 210.571C337.609 210.286 337.411 210.042 337.158 209.87C336.905 209.698 336.608 209.607 336.303 209.607C335.896 209.61 335.507 209.775 335.219 210.068C334.931 210.36 334.768 210.756 334.764 211.169Z" fill="#683F1D"/>
<path id="Vector_70" d="M326.845 214.305C327.695 214.305 328.384 213.606 328.384 212.743C328.384 211.88 327.695 211.181 326.845 211.181C325.995 211.181 325.306 211.88 325.306 212.743C325.306 213.606 325.995 214.305 326.845 214.305Z" fill="#683F1D"/>
<path id="Vector_71" d="M325.034 223.318C328.119 224.888 331.54 225.652 334.989 225.541C334.989 225.541 334.327 231.393 329.378 229.831C325.058 228.473 325.034 223.318 325.034 223.318Z" fill="white" stroke="#EF8A66" stroke-width="0.75" stroke-linecap="round" stroke-linejoin="round"/>
<path id="Vector_72" d="M320.157 208.153C320.725 210.075 327.84 208.153 327.058 205.028C326.277 201.904 319.34 205.485 320.157 208.153Z" fill="#DD6819"/>
<path id="Vector_73" d="M332.243 204.283C332.137 206.374 339.417 206.518 339.417 204.716C339.417 203.082 332.433 200.907 332.243 204.283Z" fill="#DD6819"/>
<path id="Vector_74" d="M282.49 222.885C283.372 216.971 286.191 211.531 290.492 207.444" stroke="#FF79A0" stroke-width="0.75" stroke-linecap="round" stroke-linejoin="round"/>
<path id="Vector_75" d="M305.917 176.993C303.679 178.808 300.329 184.708 299.027 187.364" stroke="#FF79A0" stroke-width="0.75" stroke-linecap="round" stroke-linejoin="round"/>
<path id="Vector_76" d="M303.928 193.312C306.568 186.174 311.646 182.954 314.025 185.694C316.405 188.433 319.601 191.558 319.601 191.558" stroke="#FF79A0" stroke-width="0.75" stroke-linecap="round" stroke-linejoin="round"/>
<path id="Vector_77" d="M334.398 197.638C337.357 197.518 340.174 194.454 341.027 192.675" stroke="#FF79A0" stroke-width="0.75" stroke-linecap="round" stroke-linejoin="round"/>
<path id="Vector_78" d="M275.175 202.517C264.26 204.247 258.874 187.845 267.741 174.879" stroke="#FF79A0" stroke-width="0.75" stroke-linecap="round" stroke-linejoin="round"/>
<path id="Vector_79" d="M286.112 187.364C288.397 181.356 280.774 171.658 276.642 178.315C271.907 185.934 278.82 196.04 286.112 195.139" stroke="#FF79A0" stroke-width="0.75" stroke-linecap="round" stroke-linejoin="round"/>
<path id="Vector_80" d="M279.602 203.803C282.215 195.92 286.637 188.782 292.505 182.978C292.505 182.978 289.19 189.803 291.617 194.658C287.405 197.415 283.39 200.471 279.602 203.803Z" fill="#FED81D"/>
<path id="Vector_81" d="M290.492 228.473C292.694 224.519 296.518 224.736 298.53 228.064" stroke="#EF8A66" stroke-width="0.75" stroke-linecap="round" stroke-linejoin="round"/>
<path id="Vector_82" d="M297.725 227.007C293.191 225.805 293.179 231.982 297.997 231.105" stroke="#EF8A66" stroke-width="0.75" stroke-linecap="round" stroke-linejoin="round"/>
<path id="Vector_83" d="M330.657 210.039C330.586 213.644 333.427 215.711 335.297 216.709C337.168 217.706 336.552 220.314 336.422 220.698" stroke="#EF8A66" stroke-width="0.75" stroke-linecap="round" stroke-linejoin="round"/>
<path id="Vector_84" d="M300.081 234.325C300.807 233.373 301.411 232.331 301.88 231.225" stroke="#EF8A66" stroke-width="0.75" stroke-linecap="round" stroke-linejoin="round"/>
<path id="Vector_85" d="M320.583 222.14C319.399 224.423 315.765 224.844 312.297 223.101C308.829 221.359 307.017 218.078 308.154 215.795C309.29 213.512 312.972 213.092 316.44 214.846C319.908 216.6 321.72 219.905 320.583 222.14Z" fill="#F4AF90"/>
<path id="Vector_86" d="M345.477 223.798C344.735 224.147 343.91 224.274 343.099 224.166C342.288 224.057 341.524 223.717 340.896 223.186C339.18 221.443 339.831 217.91 342.364 215.194C342.435 215.387 342.53 215.603 342.601 215.795C343.607 218.319 344.542 220.842 345.276 223.15C345.347 223.378 345.406 223.582 345.477 223.798Z" fill="#F4AF90"/>
</g>
</g>
<g id="Man Top">
<g id="background_2">
<path id="Vector_87" d="M767.07 166.359V345.744H515.144V166.359C515.144 161.559 517.023 156.956 520.366 153.562C523.709 150.168 528.244 148.262 532.972 148.262H749.314C754.03 148.278 758.548 150.192 761.877 153.584C765.206 156.977 767.073 161.571 767.07 166.359V166.359Z" stroke="#EDEDED" stroke-width="2" stroke-linecap="round" stroke-linejoin="round"/>
<path id="Vector_88" d="M767.07 166.359V167.164H515.144V166.359C515.144 161.559 517.023 156.956 520.366 153.562C523.709 150.168 528.244 148.262 532.972 148.262H749.314C754.03 148.278 758.548 150.192 761.877 153.584C765.206 156.977 767.073 161.571 767.07 166.359V166.359Z" stroke="#DDDDDD" stroke-width="2" stroke-linecap="round" stroke-linejoin="round"/>
<path id="Vector_89" d="M733.013 157.719C733.013 158.37 732.823 159.008 732.466 159.549C732.109 160.091 731.602 160.513 731.009 160.762C730.415 161.011 729.762 161.075 729.133 160.947C728.503 160.819 727.926 160.504 727.472 160.043C727.019 159.581 726.711 158.993 726.587 158.354C726.464 157.714 726.53 157.052 726.777 156.45C727.024 155.849 727.442 155.336 727.977 154.975C728.512 154.615 729.14 154.424 729.782 154.426C730.207 154.426 730.628 154.511 731.021 154.677C731.414 154.843 731.771 155.085 732.071 155.391C732.371 155.697 732.609 156.06 732.771 156.46C732.933 156.859 733.015 157.287 733.013 157.719Z" fill="#EDEDED"/>
<path id="Vector_90" d="M743.596 157.719C743.596 158.37 743.406 159.007 743.05 159.548C742.693 160.089 742.187 160.511 741.594 160.761C741.001 161.01 740.349 161.075 739.72 160.948C739.091 160.821 738.513 160.507 738.059 160.047C737.606 159.586 737.297 159 737.172 158.361C737.046 157.722 737.111 157.06 737.356 156.459C737.602 155.857 738.017 155.343 738.551 154.981C739.084 154.619 739.711 154.426 740.353 154.426C741.213 154.426 742.038 154.773 742.646 155.391C743.254 156.008 743.596 156.846 743.596 157.719Z" fill="#DDDDDD"/>
<path id="Vector_91" d="M754.167 157.719C754.167 158.37 753.977 159.007 753.621 159.548C753.264 160.089 752.758 160.511 752.165 160.761C751.572 161.01 750.92 161.075 750.291 160.948C749.662 160.821 749.084 160.507 748.63 160.047C748.177 159.586 747.868 159 747.743 158.361C747.617 157.722 747.682 157.06 747.927 156.459C748.173 155.857 748.588 155.343 749.122 154.981C749.655 154.619 750.282 154.426 750.924 154.426C751.784 154.426 752.609 154.773 753.217 155.391C753.825 156.008 754.167 156.846 754.167 157.719Z" fill="#EDEDED"/>
<path id="Vector_92" d="M520.519 244.347C519.867 236.848 552.48 222.633 557.866 233.604L547.212 244.347C547.212 244.347 525.206 253.203 520.519 244.347Z" fill="#93BEE5"/>
</g>
<g id="hand">
<path id="Vector_93" d="M536.476 190.717C531.741 175.768 531.385 173.893 534.558 172.776C537.73 171.658 545.768 188.638 546.679 190.717C549.864 197.26 552.318 204.144 553.995 211.241C555.404 217.874 557.25 233.147 557.546 236.824C558.801 252.35 533.587 257.073 532.486 244.996C531.385 232.919 531.302 229.014 531.302 229.014C531.302 229.014 518.281 230.215 516.458 220.386C514.635 210.556 515.144 197.073 515.144 197.073C515.144 197.073 495.352 193.745 496.039 188.445C496.725 183.146 535.457 193.853 535.457 193.853L536.476 190.717Z" fill="#B25E47"/>
<path id="Vector_94" d="M515.144 197.073C515.144 197.073 495.352 193.744 496.039 188.445C496.725 183.146 535.457 193.853 535.457 193.853L536.476 190.752C531.741 175.803 531.385 173.929 534.558 172.811C537.73 171.694 545.768 188.673 546.679 190.752" stroke="#934735" stroke-width="0.75" stroke-linecap="round" stroke-linejoin="round"/>
<path id="Vector_95" d="M535.457 193.817C533.757 200.441 534.029 207.429 536.239 213.897" stroke="#934735" stroke-width="0.75" stroke-linecap="round" stroke-linejoin="round"/>
<path id="Vector_96" d="M526.189 182.353C529.29 183.987 531.741 184.336 532.664 179.841C533.587 175.347 529.219 175.239 527.81 175.479C525.644 175.84 524.851 181.644 526.189 182.353Z" fill="#683F1D"/>
<path id="Vector_97" d="M526.769 181.199C526.282 182.951 525.887 184.728 525.585 186.523C526.094 186.787 529.136 187.833 529.539 186.787C530.003 184.952 530.332 183.084 530.521 181.199H526.769Z" fill="#683F1D"/>
<path id="Vector_98" d="M523.999 188.013C522.377 195.379 513.996 235.755 513.712 237.077C513.428 238.399 513.807 244.503 514.316 244.731C514.825 244.96 517.749 240.598 518.814 238.387C519.879 236.176 529.302 191.87 529.882 189.803C531.326 184.768 525.064 183.194 523.999 188.013Z" fill="#683F1D"/>
<path id="Vector_99" d="M516.624 210.929C512.564 211.878 511.415 215.807 514.41 218.415C517.63 221.227 525.561 219.977 525.928 216.384C526.295 212.791 520.01 210.147 516.624 210.929Z" fill="#B25E47" stroke="#934735" stroke-width="0.75" stroke-linecap="round" stroke-linejoin="round"/>
<path id="Vector_100" d="M516.257 204.488C512.09 203.863 511.072 208.093 514.043 211.337C517.015 214.582 526.828 215.315 527.384 211.457C527.941 207.6 518.814 204.872 516.257 204.488Z" fill="#B25E47" stroke="#934735" stroke-width="0.75" stroke-linecap="round" stroke-linejoin="round"/>
<path id="Vector_101" d="M512.564 197.266C517.796 196.064 529.136 203.815 528.675 206.23C528.118 209.27 522.756 209.727 515.204 206.47C508.113 203.418 510.007 197.878 512.564 197.266Z" fill="#B25E47" stroke="#934735" stroke-width="0.75" stroke-linecap="round" stroke-linejoin="round"/>
</g>
<g id="body_2">
<g id="Group_2">
<path id="Vector_102" d="M764.43 255.823C748.189 255.018 734.742 269.882 730.575 286.97C730.457 287.451 730.35 287.967 730.255 288.532C729.812 291.162 729.5 293.813 729.32 296.475C727.592 319.03 729.225 363.889 729.391 364.97C729.45 365.343 717.897 364.97 701.869 364.201C695.95 363.925 689.463 363.624 682.692 363.276C648.269 361.557 607.382 359.238 607.382 359.238L604.896 331.167C604.896 331.167 599.747 340.012 582.133 357.28C564.519 374.547 536.357 364.922 539.388 343.208C541.282 329.569 549.213 319.595 558.825 302.892C561.796 297.725 564.933 291.921 568.082 285.155C572.296 276.167 576.368 267.587 580.298 259.836C582.014 256.424 583.707 253.167 585.353 250.115C591.532 238.543 597.072 229.783 601.534 225.685C614.946 213.356 643.688 220.458 651.347 222.957C662.756 226.727 674.596 228.993 686.575 229.699C703.562 230.9 729.356 238.339 743.016 243.169C750.895 245.855 758.147 250.153 764.324 255.799L764.43 255.823Z" fill="#A7CAF0"/>
<path id="Vector_103" d="M775.865 281.406C760.997 266.265 738.423 259.656 715.766 280.205C689.416 304.034 669.198 308.179 639.556 273.379C618.119 248.144 610.685 241.787 585.353 250.163C591.532 238.591 597.072 229.831 601.534 225.733C614.946 213.404 643.688 220.506 651.347 223.005C662.758 226.759 674.598 229.009 686.575 229.699C703.562 230.9 729.356 238.339 743.016 243.169C750.895 245.855 758.147 250.153 764.324 255.799C770.266 260.557 773.735 270.075 775.865 281.406Z" fill="#C3DCF8"/>
<path id="Vector_104" d="M579.872 324.714C570.402 335.145 561.891 312.529 558.825 302.892C561.796 297.725 564.933 291.921 568.082 285.155C572.296 276.167 576.368 267.587 580.298 259.836C587.282 270.651 577.848 280.601 577.185 285.504C575.456 298.614 593.449 309.742 579.872 324.714Z" fill="#93BEE5"/>
<path id="Vector_105" d="M520.519 244.347C535.15 247.483 557.866 233.604 557.866 233.604C557.866 233.604 570.378 290.335 573.645 302.916C576.912 315.498 597.817 364.778 557.073 366.797C530.924 368.095 529.172 317.637 527.621 301.029C526.07 284.422 520.519 244.347 520.519 244.347Z" fill="#A7CAF0"/>
<path id="Vector_106" d="M530.213 250.836C541.471 251.641 554.007 243.95 554.007 243.95" stroke="#83ADDF" stroke-width="0.75" stroke-linecap="round" stroke-linejoin="round"/>
<path id="Vector_107" d="M557.866 233.604C557.866 233.604 570.378 290.335 573.645 302.916C575.433 309.778 582.464 327.562 581.872 342.643" stroke="#83ADDF" stroke-width="0.75" stroke-linecap="round" stroke-linejoin="round"/>
<path id="Vector_108" d="M639.556 232.15C646.848 245.885 666.191 259.091 689.534 240.862C689.534 240.862 692.044 233.292 691.784 233.292C691.523 233.292 642.859 227.283 642.859 227.283L639.556 232.15Z" fill="white"/>
<path id="Vector_109" d="M658.769 215.182C652.755 213.801 644.043 215.351 638.029 224.724C632.016 234.097 631.247 241.823 631.59 241.739C631.933 241.655 641.06 235.803 645.144 236.236C649.228 236.668 658.378 239.408 658.378 239.408L658.769 215.182Z" fill="#FED81D"/>
<path id="Vector_110" d="M685.865 217.934C685.865 217.934 699.158 218.018 700.934 227.476C702.71 236.933 697.809 248.276 691.795 253.516C685.782 258.755 689.085 245.945 667.493 239.937L685.865 217.934Z" fill="#FED81D"/>
<path id="Vector_111" d="M692.352 228.99C692.352 228.99 684.965 240.381 668.511 240.634C652.057 240.886 648.896 230.936 648.896 230.936C650.684 226.418 652.826 216.781 654.199 210.027C655.075 205.761 655.644 202.637 655.644 202.637C655.644 202.637 658.366 175.888 686.611 177.498L687.096 181.884L692.352 228.99Z" fill="#B25E47"/>
<path id="Vector_112" d="M654.199 210.292C655.075 206.038 655.644 202.901 655.644 202.901L671.719 195.247C671.719 195.247 674.264 213.897 654.199 210.292Z" fill="#914839"/>
<path id="Vector_113" d="M604.896 331.167C602.623 304.827 602.623 283.497 602.623 283.497" stroke="#83ADDF" stroke-width="0.75" stroke-linecap="round" stroke-linejoin="round"/>
</g>
</g>
<g id="body_3">
<path id="Vector_114" d="M712.227 395.228C710.848 394.718 709.532 394.044 708.309 393.221C700.022 387.706 699.371 376.963 701.869 364.153C703.81 354.347 707.622 343.34 711.339 332.549C715.589 320.244 719.744 308.239 720.916 298.626C721.081 297.28 721.176 295.994 721.223 294.769C721.45 287.397 722.779 280.104 725.165 273.139C731.96 253.744 746.769 241.535 764.383 255.823C770.219 260.557 773.687 270.074 775.818 281.406C776.576 285.456 777.167 289.746 777.653 294.12C779.263 308.972 779.499 324.942 780.221 336.839C783.785 394.435 770.183 417.435 712.227 395.228Z" fill="#A7CAF0"/>
<path id="Vector_115" d="M775.865 281.406C763.069 268.38 744.543 261.663 725.189 273.115C731.984 253.72 746.792 241.511 764.407 255.799C770.266 260.557 773.734 270.075 775.865 281.406Z" fill="#C3DCF8"/>
<path id="Vector_116" d="M729.391 364.922C729.45 365.295 717.897 364.922 701.869 364.153C695.95 363.877 689.463 363.576 682.692 363.228C671.115 357.94 663.918 350.286 670.085 339.315C686.871 309.501 717.708 350.803 719.317 321.29C720.407 301.054 725.236 296.655 729.32 296.523C727.592 319.03 729.19 363.889 729.391 364.922Z" fill="#93BEE5"/>
<path id="Vector_117" d="M733.333 278.174C731.033 284.015 729.678 290.195 729.32 296.475C727.781 319.042 729.225 363.889 729.391 364.97" stroke="#83ADDF" stroke-width="0.75" stroke-linecap="round" stroke-linejoin="round"/>
<path id="Vector_118" d="M712.227 395.228C710.848 394.718 709.532 394.044 708.309 393.221C721.59 396.117 741.454 398.725 750.202 391.142C763.992 379.222 755.233 363.937 762.856 355.525C770.479 347.113 781.476 344.398 777.7 294.156C779.31 309.009 779.547 324.979 780.269 336.875C783.785 394.435 770.183 417.435 712.227 395.228Z" fill="#93BEE5"/>
</g>
<g id="hand_2">
<path id="Vector_119" d="M679.011 294.12C681.118 284.507 669.209 284.927 669.209 284.927C670.263 276.059 658.686 273.595 656.011 282.259C646.6 279.375 643.629 282.259 642.255 287.282L679.011 294.12Z" fill="#DDDDDD"/>
<path id="Vector_120" d="M662.959 285.852C664.509 285.852 665.765 284.577 665.765 283.004C665.765 281.432 664.509 280.157 662.959 280.157C661.41 280.157 660.154 281.432 660.154 283.004C660.154 284.577 661.41 285.852 662.959 285.852Z" fill="#F9F9F9" stroke="#DDDDDD" stroke-linecap="round" stroke-linejoin="round"/>
<g id="hand_3">
<path id="Vector_121" d="M624.381 280.145L606.814 376.843L676.56 391.142L695.299 294.312L624.381 280.145Z" fill="#F9F9F9" stroke="#DDDDDD" stroke-linecap="round" stroke-linejoin="round"/>
<path id="Vector_122" d="M645.866 344.217C642.315 353.626 642.102 363.516 643.735 366.821C643.735 366.821 650.388 368.083 657.04 349.757L645.866 344.217Z" fill="#93BEE5"/>
<path id="Vector_123" d="M654.898 326.024C638.941 320.46 631.318 317.096 628.441 316.303C625.565 315.51 615.171 314.62 613.514 316.303C611.857 317.985 611.738 320.124 612.33 322.311C612.922 324.498 611.146 326.192 610.898 328.452C610.649 330.711 613.325 331.396 612.78 333.643C612.235 335.89 610.413 338.353 611.667 340.853C612.922 343.352 610.484 345.9 612.78 348.928C615.076 351.956 638.61 353.422 643.771 352.305L653.904 356.907C653.904 356.907 671.731 338.317 654.898 326.024Z" fill="#B25E47"/>
<path id="Vector_124" d="M628.441 316.303C625.565 315.522 615.171 314.62 613.514 316.303C611.857 317.985 611.738 320.124 612.33 322.311C612.922 324.498 611.146 326.192 610.898 328.452C610.649 330.711 613.325 331.396 612.78 333.643C612.235 335.89 610.413 338.353 611.667 340.853C612.922 343.352 610.484 345.9 612.78 348.928" stroke="#934735" stroke-width="0.75" stroke-linecap="round" stroke-linejoin="round"/>
<path id="Vector_125" d="M750.213 391.13C746.058 398.749 735.665 402.414 715.885 396.37C710.558 394.735 705.42 393.041 700.496 391.323C692.352 388.487 684.835 385.591 678.099 382.815C666.363 378.079 654.874 372.737 643.676 366.809C646.651 363.479 649.052 359.664 650.778 355.525C651.855 353.075 652.742 350.544 653.43 347.955C655.269 340.798 655.762 333.354 654.886 326.012C657.573 326.829 660.461 327.67 663.504 328.512C670.855 330.554 679.094 332.669 687.439 334.892C712.452 341.586 738.471 349.252 744.804 358.782C745.384 359.659 745.987 360.536 746.461 361.449C746.662 361.81 746.875 362.17 747.065 362.543C747.123 362.635 747.174 362.731 747.218 362.831C747.455 363.264 747.68 363.708 747.893 364.141C748.296 364.922 748.651 365.703 748.994 366.484C752.723 375.16 753.776 384.605 750.213 391.13Z" fill="#A7CAF0"/>
<path id="Vector_126" d="M654.898 326.024C683.545 334.784 735.488 344.77 744.863 358.794C746.489 361.226 747.891 363.804 749.053 366.496" stroke="#83ADDF" stroke-width="0.75" stroke-linecap="round" stroke-linejoin="round"/>
<path id="Vector_127" d="M663.504 328.512C665.279 346.741 656.011 364.237 656.011 364.237" stroke="#83ADDF" stroke-width="0.75" stroke-linecap="round" stroke-linejoin="round"/>
<path id="Vector_128" d="M750.202 391.142C746.047 398.761 735.653 402.426 715.873 396.382C710.546 394.747 705.408 393.053 700.484 391.335C712.097 394.435 739.453 400.431 750.202 391.142Z" fill="#93BEE5"/>
</g>
</g>
<g id="head_2">
<path id="Vector_129" d="M686.575 177.726L687.06 182.101C677.058 197.939 663.385 202.925 655.608 202.853C642.753 199.597 638.361 187.845 637.615 175.215C637.432 172.222 637.432 169.22 637.615 166.227C638.189 157.672 639.609 149.198 641.853 140.931C641.853 140.931 680.467 122.69 683.142 159.305C683.142 159.305 691.428 157.767 692.955 167.116C694.258 174.879 686.575 177.726 686.575 177.726Z" fill="#B25E47"/>
<path id="Vector_130" d="M643.818 166.275C644.668 166.275 645.357 165.575 645.357 164.712C645.357 163.85 644.668 163.15 643.818 163.15C642.968 163.15 642.279 163.85 642.279 164.712C642.279 165.575 642.968 166.275 643.818 166.275Z" fill="#683F1D"/>
<path id="Vector_131" d="M654.566 164.28C655.416 164.28 656.105 163.58 656.105 162.718C656.105 161.855 655.416 161.156 654.566 161.156C653.717 161.156 653.027 161.855 653.027 162.718C653.027 163.58 653.717 164.28 654.566 164.28Z" fill="#683F1D"/>
<path id="Vector_132" d="M652.246 154.294C652.412 156.433 659.609 157.262 660.024 156.048C660.604 154.222 651.832 149.283 652.246 154.294Z" fill="#604730"/>
<path id="Vector_133" d="M638.503 157.49C638.503 158.692 646.328 159.185 646.043 155.087C645.854 152.119 638.669 154.27 638.503 157.49Z" fill="#604730"/>
<path id="Vector_134" d="M681.142 170.913C684.361 166.106 689.428 166.611 689.984 167.524" stroke="#934735" stroke-width="0.75" stroke-linecap="round" stroke-linejoin="round"/>
<path id="Vector_135" d="M682.515 169.267C687.25 166.431 689.854 172.788 683.841 172.788" stroke="#934735" stroke-width="0.75" stroke-linecap="round" stroke-linejoin="round"/>
<path id="Vector_136" d="M647.973 160.17C649.275 162.73 649.157 164.28 648.304 165.926C647.452 167.572 644.836 171.322 646.197 174.65" stroke="#934735" stroke-width="0.75" stroke-linecap="round" stroke-linejoin="round"/>
<path id="Vector_137" d="M656.401 175.215C655.217 179.193 650.553 181.68 648.387 181.223C648.387 181.223 650.625 187.388 654.566 185.814C659.1 183.951 656.401 175.215 656.401 175.215Z" fill="white" stroke="#934735" stroke-width="0.75" stroke-linecap="round" stroke-linejoin="round"/>
<path id="Vector_138" d="M680.431 176.573C681.318 177.207 682.328 177.643 683.393 177.85C684.459 178.057 685.556 178.031 686.611 177.775" stroke="#934735" stroke-width="0.75" stroke-linecap="round" stroke-linejoin="round"/>
<path id="Vector_139" d="M694.471 155.568C698.898 161.744 692.233 164.424 692.233 164.424C691.561 163.413 690.67 162.57 689.629 161.961C688.975 161.569 688.244 161.329 687.488 161.257C686.731 161.186 685.969 161.286 685.255 161.549C684.541 161.812 683.894 162.232 683.358 162.779C682.823 163.326 682.414 163.986 682.16 164.712C673.08 164.905 676.998 157.707 676.998 157.707C668.854 161.011 668.594 152.54 672.098 148.718C665.741 155.928 657.668 148.718 658.982 142.193C656.733 149.319 648.719 149.595 649.784 143.683C649.096 144.898 648.261 146.02 647.298 147.024C641.794 152.648 636.846 146.639 638.929 142.217C630.643 150.22 627.092 141.268 634.964 136.461C628.725 131.27 636.147 123.868 641.131 127.713C639.947 118.496 649.322 118.1 653.43 123.471C655.04 113.353 667.493 118.881 667.99 123.676C677.164 117.162 684.267 121.957 683.379 132.544C687.084 127.509 695.027 130.465 691.973 143.359C699.596 142.806 700.887 152.407 694.471 155.568Z" fill="#604730"/>
<path id="Vector_140" d="M689.629 161.961C688.975 161.569 688.244 161.329 687.488 161.257C686.731 161.186 685.969 161.286 685.255 161.549C684.541 161.812 683.894 162.232 683.358 162.779C682.823 163.326 682.414 163.986 682.16 164.712C673.08 164.905 676.998 157.707 676.998 157.707C668.854 161.011 668.594 152.54 672.098 148.718C665.741 155.928 657.668 148.718 658.982 142.193C656.733 149.319 648.719 149.595 649.784 143.683C649.096 144.898 648.261 146.02 647.298 147.024C645.073 140.186 650.056 131.162 657.668 135.248C658.674 129.744 671.115 126.175 671.044 140.054C675.649 133.529 686.078 135.764 681.142 148.214C685.024 145.269 693.95 150.365 689.629 161.961Z" fill="#473526"/>
<path id="Vector_141" d="M672.903 164.376C674.004 166.611 671.932 169.916 668.286 171.778C664.64 173.641 660.781 173.328 659.68 171.093C658.579 168.858 660.639 165.554 664.297 163.691C667.955 161.828 671.802 162.141 672.903 164.376Z" fill="#A0503D"/>
<path id="Vector_142" d="M642.445 172.872C641.877 174.446 639.971 175.275 637.627 175.275C637.443 172.282 637.443 169.28 637.627 166.287C641.107 167.789 643.25 170.637 642.445 172.872Z" fill="#A0503D"/>
</g>
</g>
<g id="Man Bottom">
<g id="background_3">
<path id="Vector_143" d="M675.448 423.852V603.237H423.475V423.852C423.467 421.475 423.922 419.119 424.815 416.922C425.707 414.724 427.019 412.727 428.675 411.046C430.331 409.365 432.298 408.033 434.463 407.127C436.628 406.221 438.948 405.759 441.29 405.767H657.632C659.974 405.759 662.294 406.221 664.459 407.127C666.624 408.033 668.591 409.365 670.247 411.046C671.903 412.727 673.215 414.724 674.108 416.922C675 419.119 675.456 421.475 675.448 423.852Z" stroke="#EDEDED" stroke-width="2" stroke-linecap="round" stroke-linejoin="round"/>
<path id="Vector_144" d="M675.448 423.852V424.669H423.475V423.852C423.467 421.475 423.922 419.119 424.815 416.922C425.707 414.724 427.019 412.727 428.675 411.046C430.331 409.365 432.298 408.033 434.463 407.127C436.628 406.221 438.948 405.759 441.29 405.767H657.632C659.974 405.759 662.294 406.221 664.459 407.127C666.624 408.033 668.591 409.365 670.247 411.046C671.903 412.727 673.215 414.724 674.108 416.922C675 419.119 675.456 421.475 675.448 423.852Z" stroke="#DDDDDD" stroke-width="2" stroke-linecap="round" stroke-linejoin="round"/>
<path id="Vector_145" d="M641.344 415.212C641.344 415.863 641.154 416.5 640.797 417.041C640.441 417.583 639.934 418.005 639.342 418.254C638.749 418.503 638.097 418.568 637.468 418.441C636.838 418.314 636.261 418.001 635.807 417.54C635.353 417.08 635.044 416.493 634.919 415.854C634.794 415.216 634.858 414.554 635.104 413.952C635.349 413.35 635.765 412.836 636.298 412.474C636.832 412.112 637.459 411.919 638.1 411.919C638.961 411.919 639.786 412.266 640.394 412.884C641.002 413.501 641.344 414.339 641.344 415.212Z" fill="#EDEDED"/>
<path id="Vector_146" d="M648.671 418.504C650.463 418.504 651.915 417.03 651.915 415.212C651.915 413.393 650.463 411.919 648.671 411.919C646.88 411.919 645.428 413.393 645.428 415.212C645.428 417.03 646.88 418.504 648.671 418.504Z" fill="#DDDDDD"/>
<path id="Vector_147" d="M659.254 418.504C661.045 418.504 662.497 417.03 662.497 415.212C662.497 413.393 661.045 411.919 659.254 411.919C657.463 411.919 656.011 413.393 656.011 415.212C656.011 417.03 657.463 418.504 659.254 418.504Z" fill="#EDEDED"/>
</g>
<g id="hand_4">
<path id="Vector_148" d="M438.331 510.516C431.134 488.886 429.441 477.206 431.406 475.536C432.59 474.478 434.566 473.697 434.72 471.558C434.874 469.419 432.459 462.233 440.888 460.551C440.888 460.551 443.74 443.595 446.451 435.652C446.451 435.652 461.509 496.493 462.562 501.059C463.616 505.625 443.22 525.273 438.331 510.516Z" fill="#FEBD9D"/>
<path id="Vector_149" d="M440.888 460.551C440.337 463.273 439.942 466.026 439.704 468.794" stroke="#EF8A66" stroke-width="0.75" stroke-linecap="round" stroke-linejoin="round"/>
<path id="Vector_150" d="M430.885 481.928C430.447 478.323 430.66 476.184 431.418 475.536C432.601 474.478 434.578 473.697 434.732 471.558C434.886 469.419 432.471 462.233 440.9 460.551C440.9 460.551 443.752 443.595 446.463 435.652" stroke="#EF8A66" stroke-width="0.75" stroke-linecap="round" stroke-linejoin="round"/>
<path id="Vector_151" d="M511.539 399.261L445.573 418.147C441.722 419.25 439.481 423.312 440.567 427.221L453.371 473.31C454.458 477.219 458.46 479.494 462.311 478.392L528.276 459.506C532.127 458.403 534.368 454.341 533.282 450.432L520.478 404.343C519.392 400.434 515.39 398.159 511.539 399.261Z" fill="#F9F9F9" stroke="#DDDDDD" stroke-linecap="round" stroke-linejoin="round"/>
<path id="Vector_152" d="M508.279 405.991L451.838 422.15C449.29 422.88 447.807 425.568 448.525 428.155L459.678 468.299C460.397 470.886 463.045 472.391 465.594 471.662L522.035 455.503C524.583 454.773 526.067 452.085 525.348 449.498L514.195 409.354C513.476 406.767 510.828 405.261 508.279 405.991Z" stroke="#EDEDED" stroke-linecap="round" stroke-linejoin="round"/>
<path id="Vector_153" d="M491.919 444.833C491.937 445.173 491.937 445.514 491.919 445.854C491.735 448.44 490.846 450.922 489.35 453.023C487.855 455.124 485.812 456.76 483.452 457.748C481.091 458.737 478.506 459.038 475.987 458.618C473.467 458.199 471.112 457.075 469.187 455.373C467.261 453.671 465.84 451.458 465.084 448.982C464.328 446.506 464.267 443.865 464.906 441.356C465.546 438.847 466.862 436.568 468.706 434.775C470.55 432.982 472.849 431.746 475.347 431.206C476.279 430.991 477.232 430.887 478.188 430.894C479.992 430.892 481.78 431.251 483.448 431.951C485.116 432.651 486.632 433.677 487.909 434.971C489.186 436.266 490.2 437.803 490.892 439.495C491.584 441.187 491.941 443.001 491.943 444.833H491.919Z" stroke="#EDEDED" stroke-linecap="round" stroke-linejoin="round"/>
<path id="Vector_154" d="M491.872 445.818C491.707 448.131 490.977 450.366 489.748 452.321C488.518 454.275 486.828 455.888 484.831 457.012C482.833 458.137 480.591 458.739 478.307 458.763C476.022 458.787 473.768 458.233 471.748 457.15C474.411 451.682 478.128 443.932 478.128 443.932L491.872 445.818Z" stroke="#EDEDED" stroke-linecap="round" stroke-linejoin="round"/>
<path id="Vector_155" d="M491.919 444.833C491.937 445.173 491.937 445.514 491.919 445.854L478.211 444.004L488.581 435.676C490.75 438.217 491.937 441.471 491.919 444.833V444.833Z" stroke="#EDEDED" stroke-linecap="round" stroke-linejoin="round"/>
<path id="Vector_156" d="M488.534 435.676L478.164 444.004C478.164 444.004 476.388 436.277 475.323 431.206C476.255 430.991 477.208 430.887 478.164 430.894C480.129 430.891 482.071 431.317 483.86 432.142C485.649 432.967 487.243 434.172 488.534 435.676Z" fill="#DDDDDD" stroke="#DDDDDD" stroke-linecap="round" stroke-linejoin="round"/>
<path id="Vector_157" d="M507.533 439.714C510.125 438.789 507.734 437.443 509.45 436.698C511.96 435.616 512.777 419.874 501.626 423.107C493.174 425.51 499.329 439.51 503.473 438.224C504.597 437.875 504.562 440.783 507.533 439.714Z" fill="#F9F9F9" stroke="#DDDDDD" stroke-linecap="round" stroke-linejoin="round"/>
<path id="Vector_158" d="M504.491 428.178C503.39 430.185 504.266 431.591 506.065 432.264C509.084 433.405 504.597 436.998 503.615 435.027C502.537 432.864 508.432 434.306 507.166 439.161" stroke="#DDDDDD" stroke-linecap="round" stroke-linejoin="round"/>
<path id="Vector_159" d="M506.207 442.934C506.965 444.773 507.9 445.097 509.332 444.677C510.764 444.256 510.824 443.247 510.445 441.781L506.207 442.934Z" fill="#F9F9F9" stroke="#EDEDED" stroke-linecap="round" stroke-linejoin="round"/>
<path id="Vector_160" d="M504.988 441.769C505.674 440.567 509.723 439.834 510.291 439.966C510.859 440.098 511.368 441.769 510.622 442.201C509.059 442.91 507.391 443.352 505.686 443.511C505.515 443.46 505.358 443.371 505.226 443.25C505.094 443.128 504.99 442.978 504.923 442.811C504.856 442.643 504.827 442.463 504.838 442.282C504.849 442.102 504.9 441.926 504.988 441.769Z" fill="#F9F9F9" stroke="#EDEDED" stroke-linecap="round" stroke-linejoin="round"/>
<path id="Vector_161" d="M504.206 439.534C504.94 438.332 509.297 437.587 509.853 437.731C510.587 437.911 511.037 439.534 510.22 439.954C508.542 440.666 506.764 441.108 504.952 441.264C504.779 441.218 504.618 441.133 504.482 441.015C504.345 440.897 504.237 440.749 504.165 440.583C504.094 440.416 504.06 440.235 504.067 440.053C504.074 439.872 504.122 439.694 504.206 439.534Z" fill="#F9F9F9" stroke="#EDEDED" stroke-linecap="round" stroke-linejoin="round"/>
<path id="Vector_162" d="M490.321 427.12L493.92 427.359" stroke="#EDEDED" stroke-linecap="round" stroke-linejoin="round"/>
<path id="Vector_163" d="M497.4 415.993L498.974 419.514" stroke="#EDEDED" stroke-linecap="round" stroke-linejoin="round"/>
<path id="Vector_164" d="M509.699 416.918L508.432 419.514" stroke="#EDEDED" stroke-linecap="round" stroke-linejoin="round"/>
<path id="Vector_165" d="M449.138 469.984C444.131 479.08 448.097 489.98 454.146 492.948C460.195 495.916 462.692 477.074 463.414 472.315C464.137 467.556 464.148 460.359 464.669 456.754C465.19 453.149 461.852 450.301 459.662 455.804C457.472 461.308 456.43 464.673 456.43 464.673L449.138 469.984Z" fill="#FEBD9D"/>
<path id="Vector_166" d="M463.414 472.315C464.148 467.508 464.148 460.359 464.669 456.754C465.19 453.149 461.852 450.301 459.662 455.804C457.472 461.308 456.43 464.673 456.43 464.673L449.138 469.984" stroke="#EF8A66" stroke-width="0.75" stroke-linecap="round" stroke-linejoin="round"/>
</g>
<g id="body_4">
<g id="Group_3">
<path id="Vector_167" d="M610.815 434.595L606.79 486.266L562.707 490.484C566.484 478.311 569.524 465.915 571.81 453.365C572.805 447.945 573.704 442.189 574.391 436.313L590.632 435.556L610.815 434.595Z" fill="#FEBD9D"/>
<path id="Vector_168" d="M594.242 440.423C592.443 447.513 582.583 452.536 571.881 453.341C572.876 447.921 573.775 442.165 574.462 436.289L590.703 435.532C593.248 436.674 594.74 438.26 594.242 440.423Z" fill="#F4A789"/>
<path id="Vector_169" d="M679.283 490.46V610.687H670.097C670.097 610.687 664.676 588.877 641.332 543.165C641.332 543.165 640.882 545.196 639.971 548.717C638.716 553.596 636.573 561.311 633.531 570.479C628.402 586.248 621.798 601.482 613.81 615.974C596.967 623.299 579.202 628.208 561.026 630.563C560.529 630.563 560.02 630.695 559.511 630.743C541.4 633.014 520.376 633.026 499.045 627.45C485.799 624.044 473.158 618.558 461.58 611.192C462.219 610.134 491.019 552.899 499.992 534.489C500.691 533.059 501.389 531.665 502.099 530.283C510.528 513.929 520.637 501.215 547.934 490.46C554.267 487.985 559.831 485.786 564.708 483.863C582.689 476.785 591.65 473.288 597.143 471.63C601.025 470.461 604.715 469.367 608.211 468.35C641.853 458.544 658.544 456.249 672.69 478.155C675.174 482.092 677.378 486.204 679.283 490.46Z" fill="#FED81D"/>
<path id="Vector_170" d="M672.69 478.155C661.042 477.434 646.387 480.691 638.1 499.208C622.795 533.384 592.585 547.696 570.437 525.789C553.036 508.593 523.383 510.829 502.099 530.284C510.528 513.929 520.637 501.215 547.934 490.46C554.267 487.985 559.831 485.786 564.708 483.863C582.689 476.785 591.65 473.288 597.143 471.63C601.025 470.461 604.715 469.367 608.211 468.35C641.853 458.544 658.544 456.249 672.69 478.155Z" fill="#FFE05C"/>
<path id="Vector_171" d="M679.283 578.194V610.639H670.097C670.097 610.639 664.676 588.829 641.332 543.117C642.67 537.842 643.7 532.759 644.528 528.253C659.609 534.958 660.899 549.15 659.254 557.165C657.727 564.627 665.481 582.916 679.283 578.194Z" fill="#FCC71F"/>
<path id="Vector_172" d="M553.699 551.373C551.332 563.942 541.021 585.981 522.614 617.464C519.785 622.031 516.573 626.341 513.014 630.346C508.312 629.628 503.65 628.665 499.045 627.462L504.869 610.699C508.172 597.733 514.339 591.953 527.621 589.357C539.411 587.038 529.539 550.435 553.699 551.373Z" fill="#FCC71F"/>
<path id="Vector_173" d="M494.393 649.693C494.393 649.693 504.372 640.416 513.014 630.334C516.573 626.329 519.785 622.019 522.614 617.452C541.021 585.981 551.32 563.942 553.699 551.361C554.441 547.467 554.421 544.483 553.64 542.408" stroke="#F7AD2B" stroke-width="0.75" stroke-linecap="round" stroke-linejoin="round"/>
<path id="Vector_174" d="M646.872 511.802C646.872 511.802 646.245 518.711 644.505 528.301C643.7 532.807 642.646 537.914 641.308 543.165" stroke="#F7AD2B" stroke-width="0.75" stroke-linecap="round" stroke-linejoin="round"/>
<path id="Vector_175" d="M504.858 583.71C505.296 612.61 472.802 641.75 454.986 605.988C447.54 591.052 428.944 521.343 430.246 511.802C431.43 503.306 455.909 484.392 465.96 488.093C465.96 488.093 470.162 499.317 475.939 513.64C483.29 531.87 493.186 555.158 500.146 566.718C503.187 571.852 504.814 577.72 504.858 583.71Z" fill="#FED81D"/>
<path id="Vector_176" d="M491.919 550.832C488.06 558.583 483.633 567.511 479.3 576.067C476.353 570.599 475.82 562.548 482.094 555.038C490.072 545.509 465.095 528.878 475.939 513.616C480.697 525.441 486.521 539.344 491.919 550.832Z" fill="#FCC71F"/>
<path id="Vector_177" d="M492.073 550.532C492.073 550.628 491.966 550.724 491.919 550.832C488.06 558.583 483.633 567.511 479.3 576.067L475.24 584.154" stroke="#F7AD2B" stroke-width="0.75" stroke-linecap="round" stroke-linejoin="round"/>
</g>
</g>
<g id="head_3">
<path id="Vector_178" d="M563.252 409.864C557.333 431.555 552.065 443.427 588.513 445.854C588.513 445.854 611.644 419.418 608.495 381.036C608.495 381.036 587.886 364.213 570.035 396.983C570.035 396.983 563.489 399.53 562.743 400.431C561.997 401.333 562.494 406.932 563.252 409.864Z" fill="#FEBD9D"/>
<path id="Vector_179" d="M570.035 396.983C570.035 396.983 563.489 399.53 562.743 400.431C561.997 401.333 562.494 406.932 563.252 409.864" stroke="#EF8A66" stroke-width="0.75" stroke-linecap="round" stroke-linejoin="round"/>
<path id="Vector_180" d="M575.018 401.633C575.868 401.633 576.557 400.934 576.557 400.071C576.557 399.208 575.868 398.509 575.018 398.509C574.169 398.509 573.48 399.208 573.48 400.071C573.48 400.934 574.169 401.633 575.018 401.633Z" fill="#5C1A55"/>
<path id="Vector_181" d="M576.356 387.429C579.41 385.278 584.772 397.8 580.89 397.752C579.327 397.752 572.639 390.049 576.356 387.429Z" fill="#BF8228"/>
<path id="Vector_182" d="M641.332 493.344C639.533 511.177 630.939 518.279 632.608 524.299C634.277 530.32 638.385 529.01 638.385 529.01C638.385 529.01 635.117 538.623 622.581 534.79C622.581 534.79 611.62 551.781 601.274 539.596C591.922 552.562 572.213 555.218 571.609 537.433C571.609 537.433 579.221 539.368 583.103 534.357C586.986 529.346 587.838 520.995 583.624 516.596C579.41 512.198 573.29 507.8 572.9 500.458C572.509 493.116 577.848 480.234 585.601 470.657C585.601 470.657 554.658 461.801 552.373 488.682L546.194 491.085C546.194 491.085 539.601 487.853 539.755 477.05C539.908 466.247 549.627 458.316 560.21 458.508C570.792 458.7 596.326 454.038 583.885 421.316C583.885 421.316 594.041 425.09 596.693 416.834C599.344 408.579 590.147 404.181 584.855 408.795C584.855 408.795 580.523 402.006 593.367 387.057C591.934 382.322 586.974 381.049 589.105 376.242C590.833 372.372 601.676 372.372 609.821 374.043C611.569 374.395 613.29 374.877 614.97 375.485C619.636 377.168 623.7 380.226 626.642 384.269C628.406 386.66 629.568 389.453 630.027 392.404C631.197 391.916 632.456 391.687 633.721 391.731C636.277 391.827 639.403 393.281 640.515 399.35C642.137 408.134 636.206 412.568 632.229 414.599C631.123 415.157 629.965 415.604 628.772 415.933C629.643 418.684 630.043 421.565 629.956 424.453C629.906 426.337 629.656 428.21 629.21 430.04C627.518 436.902 623.848 448.847 625.47 457.15C625.648 458.156 625.934 459.139 626.322 460.082C629.648 468.326 643.131 475.512 641.332 493.344Z" fill="#BF8228"/>
<path id="Vector_183" d="M632.182 414.659C631.075 415.217 629.917 415.664 628.725 415.993C628.725 415.993 623.173 417.363 620.972 407.509C619.208 399.614 623.576 394.291 630.027 392.464C631.197 391.976 632.456 391.747 633.721 391.791C622.049 402.114 627.719 410.501 632.182 414.659Z" fill="#B57724"/>
<path id="Vector_184" d="M641.332 493.344C639.533 511.177 630.939 518.279 632.608 524.299C634.277 530.32 638.385 529.01 638.385 529.01C638.385 529.01 635.117 538.623 622.582 534.79C622.582 534.79 611.62 551.781 601.274 539.596C591.922 552.562 572.213 555.218 571.609 537.433C571.609 537.433 579.221 539.368 583.103 534.357C586.986 529.346 587.838 520.995 583.624 516.596C579.41 512.198 573.29 507.8 572.9 500.458C572.509 493.116 577.848 480.234 585.601 470.657C585.601 470.657 554.658 461.801 552.373 488.682L546.194 491.085C546.194 491.085 539.601 487.853 539.755 477.05C539.908 466.247 549.627 458.316 560.21 458.508C570.792 458.7 596.326 454.038 583.885 421.316C583.885 421.316 594.041 425.09 596.693 416.834C599.344 408.579 590.147 404.181 584.855 408.795C584.855 408.795 580.523 402.006 593.367 387.057C591.934 382.322 586.974 381.049 589.105 376.242C590.833 372.372 601.676 372.372 609.821 374.043C604.375 377.431 600.729 382.755 603.76 391.082C611.206 411.511 609.11 421.34 602.659 430.065C596.208 438.789 588.916 456.501 595.118 470.657C601.321 484.812 592.206 478.299 594.941 506.31C597.675 534.321 632.584 517.257 631.495 494.438C630.513 473.817 618.19 466.884 625.375 457.186C625.554 458.192 625.839 459.175 626.227 460.118C629.649 468.326 643.131 475.512 641.332 493.344Z" fill="#B57724"/>
<path id="Vector_185" d="M584.678 413.734C588.063 411.595 591.271 411.787 593.13 413.145" stroke="#EF8A66" stroke-width="0.75" stroke-linecap="round" stroke-linejoin="round"/>
<path id="Vector_186" d="M584.974 417.086C589.957 419.261 590.893 412.748 586.82 412.664" stroke="#EF8A66" stroke-width="0.75" stroke-linecap="round" stroke-linejoin="round"/>
<path id="Vector_187" d="M610.685 384.593C616.142 386.324 624.31 395.036 624.31 395.036" stroke="#9B621F" stroke-width="0.75" stroke-linecap="round" stroke-linejoin="round"/>
<path id="Vector_188" d="M630.027 392.464C623.576 394.279 619.208 399.614 620.972 407.509C623.173 417.363 628.725 415.993 628.725 415.993" stroke="#9B621F" stroke-width="0.75" stroke-linecap="round" stroke-linejoin="round"/>
<path id="Vector_189" d="M622.925 396.995C627.92 394.964 633.886 394.099 636.159 400.515C638.432 406.932 635.106 411.907 630.027 415.572" stroke="#9B621F" stroke-width="0.75" stroke-linecap="round" stroke-linejoin="round"/>
<path id="Vector_190" d="M597.794 400.912C607.974 404.012 620.865 403.195 620.865 403.195" stroke="#9B621F" stroke-width="0.75" stroke-linecap="round" stroke-linejoin="round"/>
<path id="Vector_191" d="M600.599 418.841C609.489 421.064 620.723 414.515 622.499 411.919" stroke="#9B621F" stroke-width="0.75" stroke-linecap="round" stroke-linejoin="round"/>
<path id="Vector_192" d="M620.676 405.767C622.12 401.729 626.204 399.074 629.234 403.063C632.265 407.053 627.719 411.282 624.037 406.872" stroke="#9B621F" stroke-width="0.75" stroke-linecap="round" stroke-linejoin="round"/>
<path id="Vector_193" d="M585.613 470.717C594.231 460.395 601.499 452.151 597.806 437.25" stroke="#9B621F" stroke-width="0.75" stroke-linecap="round" stroke-linejoin="round"/>
<path id="Vector_194" d="M601.345 539.656C606.565 531.557 598.504 519.661 597.273 511.814C596.042 503.967 595.77 494.125 605.476 483.443" stroke="#9B621F" stroke-width="0.75" stroke-linecap="round" stroke-linejoin="round"/>
<path id="Vector_195" d="M614.449 448.101C621.694 466.811 622.83 469.828 618.9 483.839C614.97 497.851 612.602 504.796 618.9 514.794C625.896 525.873 623.706 529.887 622.57 534.79" stroke="#9B621F" stroke-width="0.75" stroke-linecap="round" stroke-linejoin="round"/>
<path id="Vector_196" d="M582.322 408.266C582.784 410.814 580.381 413.397 576.972 414.022C573.562 414.647 570.425 413.097 569.964 410.537C569.502 407.978 571.905 405.406 575.314 404.781C578.724 404.157 581.86 405.707 582.322 408.266Z" fill="#F4AF90"/>
</g>
<path id="foreground" d="M675.448 453.99V603.237H423.475" stroke="#EDEDED" stroke-width="2" stroke-linecap="round" stroke-linejoin="round"/>
</g>
</g>
</svg>
